<?xml version="1.0" encoding="UTF-8" standalone="no"?>
<!-- Created with Inkscape (http://www.inkscape.org/) -->

<svg
   width="13.594881cm"
   height="4.1622214cm"
   viewBox="0 0 135.94881 41.622215"
   version="1.1"
   id="svg1"
   inkscape:version="1.3.2 (091e20e, 2023-11-25, custom)"
   sodipodi:docname="Desain Sticker.svg"
   xmlns:inkscape="http://www.inkscape.org/namespaces/inkscape"
   xmlns:sodipodi="http://sodipodi.sourceforge.net/DTD/sodipodi-0.dtd"
   xmlns="http://www.w3.org/2000/svg"
   xmlns:svg="http://www.w3.org/2000/svg">
  <sodipodi:namedview
     id="namedview1"
     pagecolor="#505050"
     bordercolor="#eeeeee"
     borderopacity="1"
     inkscape:showpageshadow="0"
     inkscape:pageopacity="0"
     inkscape:pagecheckerboard="0"
     inkscape:deskcolor="#505050"
     inkscape:document-units="cm"
     inkscape:zoom="1.9578167"
     inkscape:cx="-846.6063"
     inkscape:cy="-5.8738899"
     inkscape:window-width="1920"
     inkscape:window-height="991"
     inkscape:window-x="-9"
     inkscape:window-y="-9"
     inkscape:window-maximized="1"
     inkscape:current-layer="layer1" />
  <defs
     id="defs1" />
  <g
     inkscape:label="Layer 1"
     inkscape:groupmode="layer"
     id="layer1"
     transform="translate(289.71876,29.359027)">
    <rect
       style="fill:#ffffff;fill-opacity:1;stroke:none;stroke-width:0.655179;stroke-dasharray:7.86213;stroke-dashoffset:0;stroke-opacity:1"
       id="rect84-6-4"
       width="135.94881"
       height="41.622215"
       x="-289.71875"
       y="-29.359028"
       ry="0.042415876"
       inkscape:export-filename="..\..\..\..\..\..\..\HeaderRepo.svg"
       inkscape:export-xdpi="300"
       inkscape:export-ydpi="300" />
    <g
       id="g90-24-7"
       transform="matrix(0.3156071,0,0,0.3156071,-308.96019,-64.879239)">
      <path
         fill="#083a6f"
         opacity="1"
         stroke="none"
         d="m 103.73276,167.26985 c -0.82139,-0.8688 -1.6272,-1.72012 -2.41926,-2.55692 -0.72566,0.63079 -1.426331,1.24034 -2.127852,1.84889 -0.06618,0.0574 -0.136296,0.11059 -0.207037,0.16238 -0.308951,0.22619 -0.631321,0.23579 -0.835701,0.0264 -0.208167,-0.21325 -0.229368,-0.54426 0.01057,-0.83909 0.546237,-0.67123 1.115358,-1.32395 1.681729,-1.97853 0.07736,-0.0894 0.192171,-0.14639 0.280311,-0.2115 -0.29074,-0.53696 -0.334868,-1.01566 0.0671,-1.42274 0.39598,-0.40107 0.86986,-0.41355 1.31146,-0.15187 0.73503,-0.62093 1.43929,-1.22977 2.15961,-1.81897 0.40738,-0.33322 0.74056,-0.35612 0.96958,-0.11645 0.23509,0.24601 0.20195,0.62061 -0.12282,1.0044 -0.59427,0.70227 -1.20249,1.39275 -1.82346,2.10959 0.77698,0.73626 1.5569,1.49103 2.35432,2.22681 0.91099,0.84058 1.8306,1.67218 2.76172,2.49032 0.26938,0.2367 0.57937,0.43447 0.89196,0.61292 0.41112,0.2347 0.82329,0.34389 1.33986,0.2473 0.54305,-0.10154 1.12601,0.0159 1.69174,0.027 0.18927,0.004 0.40415,0.0268 0.564,-0.0496 0.43275,-0.20689 0.8924,-0.40326 1.25254,-0.7086 1.83987,-1.55993 3.65166,-3.15296 5.4773,-4.7379 -0.57892,-0.68472 -1.11559,-1.31531 -1.64661,-1.95062 -0.12617,-0.15095 -0.24545,-0.3105 -0.34668,-0.47885 -0.18103,-0.30102 -0.14043,-0.61834 0.0848,-0.80699 0.2161,-0.18105 0.52001,-0.17891 0.7822,0.0439 0.73475,0.62443 1.45928,1.26088 2.21429,1.91551 0.46295,-0.24348 0.95766,-0.26496 1.36366,0.18342 0.37303,0.41198 0.32921,0.87867 0.0841,1.32061 0.57864,0.69559 1.14655,1.37755 1.71323,2.06051 0.0629,0.0758 0.12532,0.15339 0.17696,0.23694 0.17722,0.28673 0.15671,0.58193 -0.0486,0.78404 -0.20222,0.19905 -0.51681,0.22965 -0.77969,0.0104 -0.7236,-0.60361 -1.42837,-1.22981 -2.1395,-1.84833 -0.041,-0.0356 -0.0722,-0.0825 -0.0859,-0.0984 -0.5289,0.50725 -1.06825,0.98514 -1.56209,1.50618 -1.08645,1.14631 -2.15828,2.30686 -3.21683,3.47897 -0.26158,0.28965 -0.48201,0.62881 -0.66325,0.97558 -0.23304,0.44588 -0.3667,0.90571 -0.25487,1.44819 0.0857,0.41575 -0.0246,0.86987 -0.0294,1.30714 -0.003,0.24426 -0.0102,0.50131 0.0573,0.73116 0.21618,0.73542 0.69774,1.30976 1.21086,1.85681 1.38848,1.48032 2.78031,2.95753 4.16807,4.43853 0.0745,0.0795 0.12396,0.18249 0.16813,0.24902 0.71134,-0.61289 1.35617,-1.17259 2.00665,-1.72565 0.14132,-0.12016 0.29637,-0.22766 0.45665,-0.32119 0.24124,-0.14078 0.48787,-0.13853 0.69735,0.0618 0.20758,0.19853 0.23367,0.44619 0.10305,0.69369 -0.0862,0.16329 -0.19769,0.31694 -0.31777,0.45797 -0.49049,0.57606 -0.99372,1.14137 -1.47847,1.72214 -0.0718,0.0861 -0.12384,0.25069 -0.0928,0.35018 0.15919,0.51015 0.0807,0.89334 -0.29077,1.22589 -0.37856,0.33887 -0.72418,0.36852 -1.23849,0.10733 -0.0179,-0.009 -0.0405,-0.009 -0.0289,-0.007 -0.67963,0.56856 -1.34089,1.12626 -2.00839,1.67637 -0.13433,0.1107 -0.28322,0.24733 -0.44182,0.27387 -0.19477,0.0326 -0.43853,0.0174 -0.6035,-0.0774 -0.21885,-0.12576 -0.24167,-0.38781 -0.1393,-0.61866 0.07,-0.15781 0.16989,-0.30908 0.28355,-0.43965 0.58309,-0.66981 1.17497,-1.33197 1.79261,-2.02935 -0.50131,-0.46754 -1.00723,-0.96699 -1.54238,-1.43287 -1.21574,-1.05838 -2.42265,-2.12932 -3.68181,-3.13417 -0.48719,-0.38879 -1.10338,-0.61781 -1.66766,-0.90619 -0.0858,-0.0438 -0.20888,-0.019 -0.31469,-0.0184 -0.64333,0.004 -1.28667,0.008 -1.92995,0.0161 -0.14778,0.002 -0.31962,-0.0226 -0.43888,0.0419 -0.60435,0.32661 -1.25636,0.60414 -1.77926,1.03522 -1.73365,1.42924 -3.41907,2.91699 -5.13894,4.39601 0.49834,0.57154 0.94551,1.08023 1.38741,1.59347 0.1573,0.18271 0.30824,0.37174 0.45075,0.56619 0.26358,0.35964 0.27372,0.6618 0.0419,0.8905 -0.22046,0.21753 -0.50132,0.22062 -0.86258,-0.0515 -0.43732,-0.32944 -0.85368,-0.68735 -1.27069,-1.04284 -0.27511,-0.23453 -0.53535,-0.48649 -0.80012,-0.72869 -0.66943,0.25071 -1.02886,0.201 -1.36777,-0.18617 -0.326154,-0.37261 -0.356153,-0.78478 -0.09658,-1.26509 -0.568409,-0.68381 -1.135449,-1.36464 -1.700407,-2.04718 -0.07675,-0.0927 -0.150024,-0.18979 -0.212953,-0.29219 -0.170096,-0.27676 -0.148562,-0.60229 0.04497,-0.78968 0.201949,-0.19555 0.562485,-0.22051 0.816362,-0.009 0.57276,0.47704 1.133088,0.96948 1.687158,1.46823 0.1864,0.16778 0.33861,0.37353 0.61323,0.68179 0.11125,-0.18337 0.16584,-0.32195 0.26073,-0.42248 1.4535,-1.53975 2.92269,-3.06487 4.36192,-4.61776 0.33051,-0.35661 0.59054,-0.78879 0.83123,-1.21539 0.22185,-0.39321 0.27661,-0.82052 0.20713,-1.29479 -0.0701,-0.47875 0.0109,-0.97916 0.0195,-1.47018 0.003,-0.17035 0.0179,-0.34932 -0.0255,-0.51012 -0.20513,-0.76105 -0.66066,-1.37742 -1.17487,-1.95531 -0.6417,-0.72119 -1.28598,-1.44009 -1.94473,-2.17746 m 8.33296,3.5485 c -1.2177,-0.78707 -2.64892,-0.44977 -3.36706,0.79352 -0.49098,0.85001 -0.36448,1.95435 0.31196,2.72355 0.62526,0.71099 1.70424,0.95533 2.58634,0.5857 1.71533,-0.7188 1.9831,-2.86974 0.46876,-4.10277 z"
         id="path2-0-4"
         style="stroke-width:0.0658432" />
      <path
         fill="#0668bd"
         opacity="1"
         stroke="none"
         d="m 127.04242,198.69928 c -0.65193,1.01068 -1.46921,1.77229 -2.65309,2.05356 -0.1237,0.0294 -0.26261,0.0446 -0.38522,0.0201 -0.55801,-0.11145 -1.1127,-0.23946 -1.70378,-0.36923 0.80407,-1.45649 1.95526,-2.63406 3.18914,-3.7517 -1.84385,0.94599 -3.3418,2.31052 -4.72536,3.92983 -0.1056,-0.74384 -0.12395,-1.41289 0.0412,-2.0761 0.40714,-1.63519 1.44354,-2.78888 2.926,-3.48119 1.11512,-0.52075 2.31381,-0.86394 3.47959,-1.27399 0.4095,-0.14404 0.83174,-0.25183 1.30884,-0.39428 -0.20026,1.893 -0.48526,3.70082 -1.47729,5.34299 z"
         id="path7-6-3-4"
         style="fill:#0b5296;fill-opacity:1;stroke-width:0.0658432" />
      <path
         fill="#0c3e72"
         opacity="1"
         stroke="none"
         d="m 103.34108,201.72011 c -0.20954,0.0494 -0.41908,0.0988 -0.61785,0.14568 -0.3108,-0.52769 -0.35276,-0.90529 -0.18346,-1.57809 -0.51888,-0.33838 -0.81982,-0.79789 -0.74499,-1.45423 0.008,-0.072 -0.0648,-0.15639 -0.10777,-0.23057 -0.32429,-0.55922 -0.52663,-1.13529 -0.25611,-1.75988 -1.08256,-0.81484 -1.12388,-1.91774 -0.81815,-3.05971 0.19686,-0.73538 0.54352,-1.4309 0.82701,-2.14269 0.0728,-0.18289 0.16071,-0.35979 0.24992,-0.55773 -0.41961,-0.24725 -0.51687,-0.61525 -0.48692,-1.08619 0.0169,-0.26631 -0.13441,-0.54541 -0.21966,-0.81569 -0.19208,-0.60896 0.009,-0.98503 0.61837,-1.18209 0.9177,-0.29695 1.8332,-0.60095 2.74631,-0.91174 0.57278,-0.19495 0.95624,0.002 1.1392,0.5769 0.12813,0.40246 0.31425,0.7872 0.4303,1.19251 0.0703,0.24543 0.0563,0.51501 0.0801,0.77373 -0.0365,0.0124 -0.073,0.0248 -0.10958,0.0372 0.2008,0.1271 0.40371,0.251 0.602,0.3819 0.54809,0.36185 1.12229,0.69191 1.63101,1.10281 0.32276,0.26069 0.58888,0.61814 0.80544,0.97739 0.31597,0.52416 0.44083,1.09955 0.1337,1.69752 0.60595,0.4348 0.77407,1.04265 0.75573,1.73738 -0.003,0.11516 0.0584,0.25022 0.13014,0.34607 0.35033,0.46804 0.48598,0.96894 0.31673,1.545 -0.0257,0.0873 0.0266,0.21533 0.0788,0.30316 0.0658,0.11074 0.16855,0.19954 0.27925,0.33378 0.1362,0.3393 0.24852,0.64262 0.36086,0.94594 -4.6e-4,0.024 -9.2e-4,0.048 -0.009,0.10677 0.005,0.0668 0.0173,0.0988 0.0297,0.13079 -0.033,0.0722 -0.0478,0.18426 -0.10242,0.2092 -0.16551,0.0756 -0.34642,0.11748 -0.55876,0.18426 -0.0558,-0.23994 -0.11742,-0.44752 -0.15027,-0.65955 -0.0536,-0.34571 -0.21532,-0.61973 -0.50454,-0.81076 -0.27841,-0.18386 -0.3324,-0.43269 -0.19992,-0.71319 0.22708,-0.48076 0.11943,-0.87422 -0.22192,-1.26166 -0.12006,-0.13626 -0.15664,-0.36251 -0.18901,-0.5548 -0.0304,-0.18051 0.0152,-0.37297 -0.008,-0.55569 -0.0562,-0.44256 -0.37368,-0.75435 -0.81493,-0.81657 -0.28147,-0.0397 -0.56472,-0.0667 -0.91495,-0.10722 0.2956,-0.17285 0.5428,-0.32329 0.79554,-0.46376 0.34129,-0.18969 0.4344,-0.39044 0.35035,-0.7833 -0.11632,-0.54375 -0.43461,-0.96491 -0.87358,-1.27049 -0.61889,-0.43082 -1.30503,-0.77034 -1.89718,-1.23248 -0.45033,-0.35146 -0.84081,-0.32062 -1.30701,-0.11713 -0.31974,0.13957 -0.66148,0.22874 -1.0341,0.36049 -0.5648,0.0955 -1.00123,0.2753 -1.11851,0.87281 -0.0246,0.12522 -0.11468,0.23609 -0.15993,0.35897 -0.28327,0.76911 -0.58236,1.53325 -0.83576,2.3122 -0.16512,0.5076 -0.0688,1.02015 0.13433,1.50834 0.15821,0.38026 0.3873,0.5249 0.79982,0.47094 0.75872,-0.0992 1.51508,-0.21644 2.27285,-0.32324 0.10727,-0.0151 0.21685,-0.0138 0.32537,-0.0202 -0.008,0.0279 -0.0163,0.0559 -0.0506,0.0865 -0.77536,0.27876 -1.52577,0.55147 -2.27312,0.83235 -0.34031,0.1279 -0.50544,0.42781 -0.42715,0.78318 0.0397,0.18045 0.095,0.36468 0.18255,0.52588 0.1745,0.32139 0.28799,0.64507 0.31224,1.01983 0.0305,0.47132 0.43152,0.74044 0.90634,0.66964 0.1406,-0.021 0.27988,-0.0518 0.41887,-0.0822 0.52908,-0.11569 1.05779,-0.23305 1.58663,-0.34978 -0.52964,0.31373 -1.06409,0.61227 -1.62327,0.85348 -0.88633,0.38234 -0.76734,0.73108 -0.54437,1.3664 0.0181,0.0516 0.042,0.10109 0.0632,0.15156 m -1.55142,-13.04256 c -0.0388,0.14101 -0.12828,0.2904 -0.10667,0.42147 0.0615,0.37315 0.15296,0.74382 0.26941,1.10355 0.0254,0.0785 0.22606,0.17566 0.30853,0.14887 0.92533,-0.30058 1.84292,-0.62492 2.76365,-0.9398 0.17721,-0.0606 0.23901,-0.14585 0.16579,-0.34245 -0.12955,-0.3479 -0.239,-0.70427 -0.33744,-1.06243 -0.0692,-0.25188 -0.19599,-0.30234 -0.43649,-0.21887 -0.8573,0.29755 -1.71936,0.5814 -2.62678,0.88966 z"
         id="path9-5-5"
         style="stroke-width:0.0658432" />
      <path
         fill="#0e569c"
         opacity="1"
         stroke="none"
         d="m 99.490516,202.32028 c -0.639801,-0.29832 -1.257383,-0.58627 -1.874962,-0.87423 -0.01731,0.0341 -0.03461,0.0682 -0.05192,0.10223 0.76668,0.4138 1.451043,0.93118 2.049267,1.55698 -0.520991,0.39785 -1.011243,0.78276 -1.516901,1.14624 -0.07026,0.0505 -0.227835,0.0238 -0.325778,-0.0153 -1.063667,-0.42447 -1.990227,-1.06687 -2.796939,-1.86843 -0.823028,-0.81775 -1.607312,-1.6745 -2.44638,-2.55382 0.197416,-0.0421 0.359524,-0.0828 0.523813,-0.11071 1.744675,-0.29626 3.489591,-0.36583 5.226239,0.0455 1.349163,0.31952 2.582895,0.85233 3.460155,1.99595 0.0662,0.0864 0.12915,0.17531 0.19921,0.27068 -0.55016,0.24611 -1.08317,0.49007 -1.62297,0.71792 -0.0572,0.0241 -0.1599,-0.0359 -0.2318,-0.0748 -0.19242,-0.10408 -0.379574,-0.21791 -0.591037,-0.33825 z"
         id="path11-2-4"
         style="stroke-width:0.0658432" />
      <path
         fill="#0565ba"
         opacity="1"
         stroke="none"
         d="m 115.9674,203.08515 c -0.79514,0 -1.59028,0 -2.35225,0 0.27708,-1.44843 0.55638,-2.90849 0.84736,-4.42958 -0.66472,0.13992 -1.2294,0.25879 -1.81433,0.35272 0.0626,-0.24956 0.13567,-0.47841 0.23019,-0.69802 0.32712,-0.75996 0.64712,-1.52358 0.9997,-2.27174 0.17474,-0.37077 0.28748,-0.34617 0.54815,-0.0725 0.2652,0.27848 0.58483,0.50511 0.89235,0.77321 0.25877,0.15305 0.49177,0.3358 0.75557,0.41225 0.70372,0.20393 1.42068,0.36215 2.15708,0.54081 0.0743,0.004 0.12384,0.006 0.1733,0.0345 -0.0121,0.11547 -0.0241,0.20418 -0.0416,0.33381 -0.29334,-0.1724 -0.42597,-0.0381 -0.52545,0.1777 -0.0498,0.10793 -0.12001,0.20697 -0.16441,0.31673 -0.17884,0.44207 -0.34117,0.89103 -0.52798,1.32962 -0.4461,1.04739 -0.97881,2.06226 -1.17768,3.20045 z"
         id="path14-0-9"
         style="stroke-width:0.0658432" />
      <path
         fill="#cce8f5"
         opacity="1"
         stroke="none"
         d="m 103.37097,201.71964 c -0.0511,-0.05 -0.075,-0.0995 -0.0931,-0.15109 -0.22297,-0.63532 -0.34196,-0.98406 0.54437,-1.3664 0.55918,-0.24121 1.09363,-0.53975 1.62327,-0.85348 -0.52884,0.11673 -1.05755,0.23409 -1.58663,0.34978 -0.13899,0.0304 -0.27827,0.0612 -0.41886,0.0822 -0.47482,0.0708 -0.87585,-0.19832 -0.90635,-0.66964 -0.0243,-0.37476 -0.13774,-0.69844 -0.31223,-1.01983 -0.0875,-0.1612 -0.1428,-0.34543 -0.18256,-0.52588 -0.0783,-0.35537 0.0868,-0.65528 0.42716,-0.78318 0.74734,-0.28088 1.49776,-0.55359 2.27553,-0.80219 0.0307,0.0879 0.0327,0.14837 0.0348,0.20883 -0.4059,0.48895 -0.3906,0.59107 0.14267,0.9264 0.34531,0.21714 0.43944,0.55507 0.44588,0.93199 0.0138,0.80927 0.19056,0.98214 1.01408,0.96897 0.14939,-0.002 0.2984,-0.0285 0.53185,-0.0523 -0.28335,0.19512 -0.50407,0.34671 -0.72436,0.49892 -0.5079,0.35093 -0.48465,0.89286 0.051,1.20685 0.13161,0.0771 0.30027,0.12925 0.38228,0.24303 0.0989,0.13718 0.17416,0.32939 0.16907,0.495 -0.009,0.28262 -0.088,0.56307 -0.14679,0.89656 -0.99311,-0.46716 -2.09265,-0.67478 -3.27098,-0.58453 z"
         id="path15-6-1"
         style="stroke-width:0.0658432" />
      <path
         fill="#0c69bc"
         opacity="1"
         stroke="none"
         d="m 124.98191,160.3802 c -1.33169,-1.98673 -3.1387,-2.94366 -5.52912,-2.6501 -0.8123,0.0998 -1.52972,0.45255 -2.16752,0.96448 -0.0759,0.061 -0.1506,0.12351 -0.24624,0.20206 -0.14438,-0.16089 -0.28019,-0.31222 -0.43021,-0.47938 0.83608,-0.81433 1.82446,-1.24728 2.93954,-1.39201 2.80352,-0.36388 5.53888,1.33938 6.56729,4.15228 0.81843,2.23856 0.34757,4.26501 -1.19871,6.05998 -0.16648,0.19325 -0.36638,0.25782 -0.5338,0.0877 -0.14942,-0.1518 -0.14376,-0.37121 0.0329,-0.55713 1.53103,-1.61136 1.88969,-4.25923 0.56589,-6.3879 z"
         id="path22-7-8"
         style="stroke-width:0.0658432" />
      <path
         fill="#cae7f5"
         opacity="1"
         stroke="none"
         d="m 104.79943,196.18562 c -0.0252,-0.0573 -0.0272,-0.11779 -0.0317,-0.20842 0.006,-0.0581 0.0139,-0.086 0.022,-0.11398 -0.10852,0.006 -0.21809,0.005 -0.32537,0.0202 -0.75776,0.1068 -1.51412,0.22401 -2.27285,0.32324 -0.41251,0.054 -0.64161,-0.0907 -0.79982,-0.47094 -0.2031,-0.48819 -0.29944,-1.00074 -0.13432,-1.50834 0.25339,-0.77895 0.55248,-1.54309 0.83575,-2.3122 0.0453,-0.12288 0.13536,-0.23375 0.15993,-0.35897 0.11728,-0.59751 0.55371,-0.77733 1.10382,-0.85364 -0.10183,0.62775 -0.22658,1.25704 -0.35867,1.88478 -0.0809,0.38425 -0.23378,0.76386 -0.24823,1.14953 -0.0372,0.9926 0.37662,1.40665 1.44858,1.65723 0.26412,0.0617 0.52697,0.12885 0.81891,0.21962 0.22052,0.1176 0.18701,0.27716 0.15255,0.43701 -0.11581,0.0439 -0.23163,0.0879 -0.37055,0.13493 z"
         id="path29-1-8"
         style="stroke-width:0.0658432" />
      <path
         fill="#0c68ba"
         opacity="1"
         stroke="none"
         d="m 96.013066,183.8634 c 0.828578,2.15063 2.394743,3.33822 4.624194,3.69021 0.003,0.0195 0.015,0.0446 0.007,0.0578 -0.36345,0.60964 -0.36365,0.60952 -1.054335,0.42623 -4.132812,-1.09673 -5.885525,-6.06301 -3.318268,-9.40331 0.04568,-0.0594 0.09755,-0.11409 0.171309,-0.19976 0.150039,0.16708 0.28657,0.31911 0.437506,0.48718 -1.110257,1.4811 -1.440194,3.12014 -0.867536,4.94169 z"
         id="path30-8-2"
         style="stroke-width:0.0658432" />
      <path
         fill="#1295e3"
         opacity="1"
         stroke="none"
         d="m 118.40464,197.70009 c -0.0496,-0.002 -0.0991,-0.004 -0.17324,-0.0346 -0.0329,-0.40138 -0.21234,-0.55388 -0.58662,-0.4656 -0.24658,0.0582 -0.42007,-0.02 -0.63161,-0.1431 -0.40259,-0.23429 -0.83401,-0.42685 -1.27065,-0.59102 -0.17566,-0.0661 -0.44219,-0.0874 -0.43568,0.25471 -0.29579,-0.24933 -0.61542,-0.47596 -0.88062,-0.75444 -0.26067,-0.2737 -0.37341,-0.2983 -0.54815,0.0725 -0.35258,0.74816 -0.67258,1.51178 -0.9997,2.27174 -0.0945,0.21961 -0.16755,0.44846 -0.25732,0.69645 -0.27668,0.0959 -0.54646,0.16848 -0.88739,0.26018 0.18899,-0.47823 0.34513,-0.88196 0.50776,-1.28305 0.33739,-0.83212 0.6726,-1.66521 1.02083,-2.4928 0.11562,-0.27476 0.14723,-0.51381 -0.0932,-0.74004 -0.0929,-0.0874 -0.15626,-0.20603 -0.27061,-0.33234 0.0589,-0.21715 0.15522,-0.41241 0.2675,-0.59246 0.19794,0.26024 0.35435,0.53051 0.5664,0.74601 0.99547,1.01159 2.23526,1.60136 3.57412,2.00309 0.83544,0.25067 1.67988,0.43159 2.54742,0.16854 -0.0178,0.21618 -0.0352,0.40544 -0.0541,0.61033 -0.1005,0.009 -0.20733,0.0185 -0.31416,0.028 -0.17142,0.0219 -0.34907,0.0231 -0.51224,0.0724 -0.12616,0.0381 -0.23418,0.13629 -0.3906,0.22613 -0.0863,0.0187 -0.13221,0.019 -0.17815,0.0194 z"
         id="path31-4-0"
         style="stroke-width:0.0658432" />
      <path
         fill="#0c3e72"
         opacity="1"
         stroke="none"
         d="m 113.43713,192.38605 c 0.005,-0.0423 0.009,-0.0845 0.0199,-0.15507 0.006,-0.0283 -0.002,-0.0427 -0.002,-0.0427 0.0346,-0.59737 0.30701,-0.96298 0.86626,-1.13647 0.60342,-0.18719 1.21349,-0.14851 1.81942,-0.0136 1.5343,0.34162 2.91897,0.98609 4.08853,2.05375 0.15308,0.13974 0.29584,0.29455 0.42302,0.4582 0.36866,0.47434 0.61242,0.97812 0.27776,1.56221 -0.0595,-0.16824 -0.0987,-0.31505 -0.1379,-0.46186 -0.12737,0.0466 -0.25474,0.0933 -0.37767,0.1137 0.05,-0.56216 -0.28768,-0.90337 -0.63367,-1.22187 -0.70113,-0.64544 -1.52658,-1.09355 -2.40699,-1.44547 -0.70508,-0.28183 -1.42481,-0.50678 -2.19303,-0.51182 -1.01786,-0.007 -1.27422,0.39883 -0.85751,1.30128 -0.278,-0.0265 -0.37353,0.14012 -0.46173,0.32179 -0.0752,-0.0905 -0.13435,-0.16687 -0.19645,-0.26807 -0.078,-0.20124 -0.15301,-0.37763 -0.22805,-0.55401 z"
         id="path33-98-6"
         style="stroke-width:0.0658432" />
      <path
         fill="#1088d8"
         opacity="1"
         stroke="none"
         d="m 119.50823,197.39109 c 0.0842,-0.0184 0.19106,-0.0279 0.29156,-0.0369 0.0189,-0.20489 0.0363,-0.39415 0.0699,-0.62856 0.28845,-0.30066 0.16242,-0.62122 0.18129,-0.93353 0.22175,-0.0988 0.42157,-0.18577 0.6214,-0.27275 0.16107,0.53741 0.0932,1.03351 -0.13741,1.55675 -0.92725,2.1042 -1.81634,4.22522 -2.71988,6.33987 -0.034,0.0795 -0.0715,0.15755 -0.12028,0.26445 -0.20834,-0.0908 -0.40438,-0.1763 -0.62888,-0.27418 0.24521,-0.57881 0.48087,-1.13904 0.71965,-1.69793 0.57234,-1.33966 1.14766,-2.67805 1.71579,-4.01949 0.0361,-0.0851 0.0208,-0.19204 0.007,-0.29772 z"
         id="path34-8-5"
         style="fill:#0b5296;fill-opacity:1;stroke-width:0.0658432" />
      <path
         fill="#138fde"
         opacity="1"
         stroke="none"
         d="m 122.0184,186.23427 c -1.13173,0.45853 -2.51142,0.45412 -3.16701,-0.005 0.0877,-0.30909 0.2275,-0.41383 0.58828,-0.31077 2.59366,0.74086 5.20827,-1.71155 4.66822,-4.35979 -0.0131,-0.0644 -0.0267,-0.12867 -0.0407,-0.19286 -0.086,-0.39354 -0.086,-0.39353 0.33236,-0.56699 0.71794,1.63394 0.0698,4.34479 -2.38114,5.43567 z"
         id="path36-2-8"
         style="fill:#0c68ba;fill-opacity:1;stroke-width:0.0658432" />
      <path
         fill="#0d437c"
         opacity="1"
         stroke="none"
         d="m 120.68462,195.50289 c -0.21203,0.10343 -0.41185,0.1904 -0.6598,0.28858 -0.47261,0.027 -0.90384,0.0986 -1.32034,0.0483 -1.3616,-0.16446 -2.60525,-0.66996 -3.69861,-1.49311 -0.42012,-0.3163 -0.75471,-0.74622 -1.12827,-1.12436 0.0722,-0.19587 0.16776,-0.36246 0.46301,-0.32378 0.32297,0.28718 0.57392,0.60225 0.88585,0.8359 1.20901,0.90558 2.54317,1.50829 4.08538,1.51993 0.41917,0.003 0.83924,-0.0568 1.09828,-0.4639 0.12737,-0.0467 0.25474,-0.0933 0.38211,-0.13996 0.0392,0.14681 0.0784,0.29362 0.11968,0.46983 0.002,0.0294 0.005,0.0554 -0.0173,0.0795 -0.0296,0.0494 -0.0374,0.0746 -0.0451,0.0998 -0.0509,0.0622 -0.1018,0.12448 -0.16489,0.20316 z"
         id="path37-2-2"
         style="stroke-width:0.0658432" />
      <path
         fill="#1088d8"
         opacity="1"
         stroke="none"
         d="m 113.41541,192.39441 c 0.0968,0.16802 0.1718,0.34441 0.23679,0.56336 -0.24003,0.27277 -0.59828,0.42509 -0.50218,0.85323 -0.0964,0.19526 -0.19275,0.39052 -0.26921,0.59715 -0.60783,1.5406 -1.2356,3.06984 -1.88137,4.61469 -0.13033,-0.28772 -0.24265,-0.59104 -0.359,-0.91499 0.62535,-1.63044 1.26028,-3.23811 1.88032,-4.8515 0.16448,-0.428 0.52464,-0.62811 0.89465,-0.86194 z"
         id="path38-2-3"
         style="fill:#0c3e72;fill-opacity:1;stroke-width:0.0658432" />
      <path
         fill="#128bdc"
         opacity="1"
         stroke="none"
         d="m 99.925092,159.44368 c -2.209056,0.76224 -3.197691,3.0855 -2.521671,4.98431 -0.134889,0.0697 -0.275631,0.14251 -0.416597,0.2154 -0.563797,-1.05538 -0.420318,-3.07882 0.883046,-4.47718 1.087446,-1.16671 2.90191,-1.73454 4.07719,-1.3086 -0.0513,0.30505 -0.16964,0.44287 -0.53701,0.43143 -0.48467,-0.0151 -0.97316,0.092 -1.484958,0.15464 z"
         id="path39-3-5"
         style="stroke-width:0.0658432" />
      <path
         fill="#0c68ba"
         opacity="1"
         stroke="none"
         d="m 114.97893,182.09959 c -0.002,1.11158 0.27945,2.1094 0.90825,3.03518 -0.166,0.15303 -0.32243,0.29724 -0.48021,0.4427 -1.23475,-1.52891 -1.49696,-4.12808 -0.50859,-5.84707 0.028,0.012 0.0614,0.0186 0.0849,0.0374 0.41339,0.33219 0.38565,0.3255 0.25202,0.84919 -0.12114,0.4748 -0.17355,0.96713 -0.25637,1.48257 z"
         id="path41-6-4"
         style="stroke-width:0.0658432" />
      <path
         fill="#0c69bc"
         opacity="1"
         stroke="none"
         d="m 107.18667,163.3181 c -0.0488,0.83952 -0.2687,1.60264 -0.62567,2.38918 -0.16458,-0.1432 -0.31785,-0.25906 -0.44602,-0.39805 -0.042,-0.0456 -0.0471,-0.16232 -0.0213,-0.22776 0.61406,-1.56174 0.48558,-3.06949 -0.31411,-4.53223 -0.0254,-0.0464 -0.0405,-0.0985 -0.0688,-0.16867 0.16653,-0.13011 0.32774,-0.25608 0.52514,-0.41032 0.64368,1.03564 0.9502,2.13103 0.95081,3.34785 z"
         id="path43-1-2"
         style="stroke-width:0.0658432" />
      <path
         fill="#0c68ba"
         opacity="1"
         stroke="none"
         d="m 106.1411,180.67885 c -0.16036,-0.45682 -0.16036,-0.45682 0.37221,-0.82194 0.89377,1.66925 0.62318,4.24562 -0.54121,5.69895 -0.15588,-0.13346 -0.3112,-0.26643 -0.48009,-0.41103 0.84453,-1.39383 1.13175,-2.86268 0.64909,-4.46598 z"
         id="path44-1-6"
         style="stroke-width:0.0658432" />
      <path
         fill="#0c68ba"
         opacity="1"
         stroke="none"
         d="m 100.45851,169.22432 c -0.86688,-0.0922 -1.657157,-0.32186 -2.407646,-0.7837 0.137124,-0.18 0.264961,-0.34781 0.413468,-0.54275 1.568388,0.86251 3.159488,0.84988 4.778548,0.1155 0.14313,0.16423 0.28457,0.32654 0.45291,0.5197 -1.02651,0.51201 -2.07654,0.782 -3.23728,0.69125 z"
         id="path45-3-9"
         style="stroke-width:0.0658432" />
      <path
         fill="#0d65b7"
         opacity="1"
         stroke="none"
         d="m 120.31688,176.29481 c 1.23731,-0.004 2.35518,0.30644 3.13264,0.87063 -0.0552,0.0867 -0.10967,0.17641 -0.16844,0.26325 -0.0601,0.0889 -0.12449,0.17492 -0.19768,0.27711 -0.67125,-0.36444 -1.36033,-0.63401 -2.11291,-0.70059 -0.76179,-0.0674 -1.51617,-0.0211 -2.2316,0.264 -0.30446,0.12134 -0.51367,0.10072 -0.6786,-0.19159 -0.0415,-0.0735 -0.10518,-0.13447 -0.17045,-0.2159 0.77042,-0.37007 1.56487,-0.54174 2.42704,-0.56691 z"
         id="path46-40-6"
         style="stroke-width:0.0658432" />
      <path
         fill="#0c69bb"
         opacity="1"
         stroke="none"
         d="m 119.31792,169.1315 c -0.48443,-0.1456 -0.94128,-0.28719 -1.45391,-0.44606 0.14591,-0.16113 0.24596,-0.24809 0.31636,-0.35464 0.11756,-0.17794 0.24264,-0.19272 0.43909,-0.11483 1.123,0.44524 2.26934,0.45723 3.41784,0.11628 0.34407,-0.10214 0.66785,-0.27267 1.02784,-0.42311 0.11821,0.15219 0.24371,0.31375 0.39534,0.50893 -1.29695,0.78169 -2.66019,1.00167 -4.14256,0.71343 z"
         id="path48-7-3"
         style="stroke-width:0.0658432" />
      <path
         fill="#0b80d2"
         opacity="1"
         stroke="none"
         d="m 118.40452,197.72684 c 0.0461,-0.0271 0.092,-0.0274 0.16088,-0.029 -0.61339,1.50629 -1.2476,3.01466 -1.88711,4.52078 -0.24456,0.57596 -0.25008,0.57362 0.24043,0.96316 -0.3246,-0.0261 -0.61358,-0.0494 -0.92694,-0.0846 0.17449,-1.1502 0.7072,-2.16507 1.1533,-3.21246 0.18681,-0.43859 0.34914,-0.88755 0.52798,-1.32962 0.0444,-0.10976 0.11465,-0.2088 0.16441,-0.31673 0.0995,-0.21579 0.23211,-0.3501 0.52545,-0.1777 0.0175,-0.12963 0.0295,-0.21834 0.0416,-0.33381 z"
         id="path49-25-2"
         style="stroke-width:0.0658432" />
      <path
         fill="#0f4c8a"
         opacity="1"
         stroke="none"
         d="m 125.96318,200.92051 c 0.36473,-0.29859 0.70474,-0.59005 1.05534,-0.86816 0.0929,-0.0737 0.22369,-0.15883 0.32786,-0.14822 0.36837,0.0375 0.73274,0.11426 1.17218,0.18858 -0.40235,0.37565 -0.79194,0.69103 -1.12234,1.05949 -0.465,0.51856 -0.95272,0.65662 -1.55484,0.25401 -0.1129,-0.0755 -0.25379,-0.10916 -0.41358,-0.1753 0.19603,-0.11361 0.35533,-0.20594 0.53538,-0.3104 z"
         id="path50-8-8"
         style="stroke-width:0.0658432" />
      <path
         fill="#cce8f5"
         opacity="1"
         stroke="none"
         d="m 105.19291,196.04892 c 0.0115,-0.15808 0.045,-0.31764 -0.15068,-0.43127 0.21731,-0.0222 0.43832,-0.0222 0.65934,-0.0222 0.0128,0.0265 0.0255,0.0529 0.0383,0.0793 -0.17468,0.1241 -0.34935,0.24821 -0.54695,0.37409 z"
         id="path55-1-7"
         style="stroke-width:0.0658432" />
      <path
         fill="#76b028"
         opacity="1"
         stroke="none"
         d="m 92.144381,193.30643 c 0.05461,0.001 0.105192,0.0207 0.155768,0.0402 -0.02577,0.0242 -0.05153,0.0484 -0.09875,0.0757 -0.03466,-0.0305 -0.04785,-0.064 -0.05702,-0.11596 z"
         id="path56-1-6"
         style="stroke-width:0.0658432" />
      <path
         fill="#1088d8"
         opacity="1"
         stroke="none"
         d="m 111.00721,199.25911 c -0.0173,-0.0151 -0.0297,-0.0471 -0.0372,-0.096 0.0173,0.0151 0.0297,0.0471 0.0372,0.096 z"
         id="path57-0-5"
         style="stroke-width:0.0658432" />
      <path
         fill="#1088d8"
         opacity="1"
         stroke="none"
         d="m 113.44787,192.1883 c 0.007,-1e-5 0.0152,0.0144 0.0117,0.0215 -0.003,0.007 -0.0198,-1.3e-4 -0.0198,-1.3e-4 0,0 7.9e-4,-0.0214 0.008,-0.0214 z"
         id="path58-6-0"
         style="stroke-width:0.0658432" />
      <path
         fill="#0d5497"
         opacity="1"
         stroke="none"
         d="m 118.606,203.56472 c -0.009,0.005 -0.0163,0.0116 -0.025,0.0165 -0.002,8.8e-4 -0.008,-0.007 -0.0124,-0.0112 0.007,-0.006 0.0145,-0.0118 0.0311,-0.009 0.009,0.009 0.007,0.005 0.006,0.004 z"
         id="path59-5-1"
         style="stroke-width:0.0658432" />
      <path
         fill="#0c3e72"
         opacity="1"
         stroke="none"
         d="m 120.86708,195.2881 c -0.01,-0.0136 -0.002,-0.0389 0.0211,-0.0769 0.009,0.0132 0.003,0.0392 -0.0211,0.0769 z"
         id="path60-5-3"
         style="stroke-width:0.0658432" />
      <path
         fill="#f4f6f9"
         opacity="1"
         stroke="none"
         d="m 112.08502,170.83199 c 1.49504,1.21939 1.22727,3.37033 -0.48806,4.08913 -0.8821,0.36963 -1.96108,0.12529 -2.58634,-0.5857 -0.67644,-0.7692 -0.80294,-1.87354 -0.31196,-2.72355 0.71814,-1.24329 2.14936,-1.58059 3.38636,-0.77988 m 0.0675,1.38129 c -0.36156,-0.80212 -1.09166,-1.16035 -1.87048,-0.91781 -0.7289,0.22699 -1.17464,0.94139 -1.05352,1.68853 0.14023,0.86514 0.96002,1.43377 1.8144,1.25854 0.88717,-0.18195 1.36987,-1.0314 1.1096,-2.02926 z"
         id="path61-9-6"
         style="stroke-width:0.0658432" />
      <path
         fill="#fdfdfd"
         opacity="1"
         stroke="none"
         d="m 95.625061,194.60291 c 0.06785,0.0587 0.135696,0.11742 0.203544,0.17613 -0.01442,0.0176 -0.02884,0.0352 -0.04326,0.0528 -0.0555,-0.052 -0.11101,-0.10408 -0.16988,-0.18473 -0.0034,-0.0286 0.0096,-0.0442 0.0096,-0.0442 z"
         id="path62-0-1"
         style="stroke-width:0.0658432" />
      <path
         fill="#fdfdfd"
         opacity="1"
         stroke="none"
         d="m 95.53483,194.55777 c -0.01288,-0.022 -0.02575,-0.0439 -0.03863,-0.0659 0.01799,0.002 0.03598,0.004 0.05296,0.0305 -0.001,0.0247 -0.01433,0.0355 -0.01433,0.0355 z"
         id="path63-60-6"
         style="stroke-width:0.0658432" />
      <path
         fill="#fdfdfd"
         opacity="1"
         stroke="none"
         d="m 95.55457,194.54138 c 0.02581,0.005 0.04519,0.016 0.06754,0.0442 0.003,0.0173 -0.01001,0.0329 -0.0165,0.0412 -0.02409,-0.006 -0.04169,-0.0213 -0.06502,-0.0526 -0.0057,-0.0165 0.0076,-0.0272 0.01399,-0.0329 z"
         id="path64-3-5"
         style="stroke-width:0.0658432" />
      <path
         fill="#fdfdfd"
         opacity="1"
         stroke="none"
         d="m 95.897398,194.91028 c -0.02023,0.0303 -0.0317,0.0348 -0.06116,0.0351 0.01131,-0.0231 0.04062,-0.042 0.06116,-0.0351 z"
         id="path65-19-4"
         style="stroke-width:0.0658432" />
      <path
         fill="#3caaec"
         opacity="1"
         stroke="none"
         d="m 101.81325,188.66793 c 0.88384,-0.29864 1.7459,-0.58249 2.6032,-0.88004 0.24049,-0.0835 0.36725,-0.033 0.43649,0.21887 0.0984,0.35816 0.20789,0.71453 0.33744,1.06243 0.0732,0.1966 0.0114,0.28185 -0.1658,0.34245 -0.92072,0.31488 -1.83831,0.63922 -2.76364,0.9398 -0.0825,0.0268 -0.28311,-0.0703 -0.30853,-0.14887 -0.11645,-0.35973 -0.20788,-0.7304 -0.26941,-1.10355 -0.0216,-0.13107 0.0679,-0.28046 0.13025,-0.43109 z"
         id="path66-9-3"
         style="stroke-width:0.0658432" />
      <path
         fill="#fdfdfd"
         opacity="1"
         stroke="none"
         d="m 110.42848,202.75914 c 0.0114,-0.006 0.0393,0.003 0.0597,0.027 -0.0194,0.006 -0.0314,-0.003 -0.0597,-0.027 z"
         id="path67-6-5"
         style="stroke-width:0.0658432" />
      <path
         fill="#1398e6"
         opacity="1"
         stroke="none"
         d="m 115.31857,196.73927 c -0.0182,-0.36083 0.24829,-0.33953 0.42395,-0.27348 0.43664,0.16417 0.86806,0.35673 1.27065,0.59102 0.21154,0.12309 0.38503,0.20127 0.63161,0.1431 0.37428,-0.0883 0.55376,0.0642 0.56192,0.46333 -0.71188,-0.14957 -1.42884,-0.30779 -2.13256,-0.51172 -0.2638,-0.0764 -0.4968,-0.2592 -0.75557,-0.41225 z"
         id="path68-76-5"
         style="stroke-width:0.0658432" />
      <path
         fill="#f6f9fc"
         opacity="1"
         stroke="none"
         d="m 113.16592,193.82621 c -0.112,-0.44335 0.24625,-0.59567 0.48919,-0.84358 0.0722,0.0586 0.13137,0.13497 0.20652,0.2255 0.38953,0.39234 0.72412,0.82226 1.14424,1.13856 1.09336,0.82315 2.33701,1.32865 3.69861,1.49311 0.4165,0.0503 0.84773,-0.0213 1.29841,-0.0365 0.0293,0.3011 0.15529,0.62166 -0.13281,0.89541 -0.88376,0.30819 -1.7282,0.12727 -2.56364,-0.1234 -1.33886,-0.40173 -2.57865,-0.9915 -3.57412,-2.00309 -0.21205,-0.2155 -0.36846,-0.48577 -0.5664,-0.74601 z"
         id="path69-6-0"
         style="stroke-width:0.0658432" />
      <path
         fill="#f3f5f7"
         opacity="1"
         stroke="none"
         d="m 120.41456,194.76422 c -0.26348,0.43331 -0.68355,0.49332 -1.10272,0.49016 -1.54221,-0.0116 -2.87637,-0.61435 -4.08538,-1.51993 -0.31193,-0.23365 -0.56288,-0.54872 -0.85909,-0.83859 -0.46072,-0.91197 -0.20436,-1.31747 0.8135,-1.3108 0.76822,0.005 1.48795,0.22999 2.19303,0.51182 0.88041,0.35192 1.70586,0.80003 2.40699,1.44547 0.34599,0.3185 0.68369,0.65971 0.63367,1.22187 m -4.52041,-1.28664 c 0.0218,0.009 0.0436,0.0177 0.066,0.0183 0,0 -0.008,0.003 0.0103,0.0354 0.0431,0.0225 0.0863,0.045 0.14994,0.0889 0,0 0.0295,0.003 0.0555,0.0406 0.38588,0.20464 0.7624,0.43066 1.1614,0.6053 0.2129,0.0932 0.46334,0.10683 0.69917,0.13952 0.23228,0.0322 0.46918,0.0319 0.70102,0.0664 0.25553,0.0379 0.52902,0.0939 0.68207,-0.16568 0.14047,-0.23825 -0.0272,-0.44145 -0.19078,-0.60961 -0.483,-0.49643 -1.07157,-0.82344 -1.72239,-1.04544 0,0 -0.002,-0.002 -0.0279,-0.0233 -0.0424,-0.0152 -0.0848,-0.0305 -0.17299,-0.0718 -0.30368,-0.0808 -0.60386,-0.18167 -0.91222,-0.23583 -0.2222,-0.039 -0.45757,-0.0381 -0.68303,-0.0152 -0.33312,0.0337 -0.47328,0.28243 -0.33833,0.58653 0.0551,0.12417 0.16053,0.22601 0.26069,0.37414 0.0223,0.0142 0.0446,0.0283 0.0759,0.0702 0.0134,0.0166 0.0306,0.0238 0.0705,0.0563 0.0334,0.02 0.0667,0.0401 0.10621,0.0522 0,0 -0.01,0.002 0.009,0.033 z"
         id="path70-2-3"
         style="stroke-width:0.0658432" />
      <path
         fill="#083a6f"
         opacity="1"
         stroke="none"
         d="m 112.15946,172.23941 c 0.25335,0.97173 -0.22935,1.82118 -1.11652,2.00313 -0.85438,0.17523 -1.67417,-0.3934 -1.8144,-1.25854 -0.12112,-0.74714 0.32462,-1.46154 1.05352,-1.68853 0.77882,-0.24254 1.50892,0.11569 1.8774,0.94394 z"
         id="path71-1-1"
         style="stroke-width:0.0658432" />
      <path
         fill="#0c3e72"
         opacity="1"
         stroke="none"
         d="m 117.50768,192.64836 c 0.6496,0.22496 1.23817,0.55197 1.72117,1.0484 0.16361,0.16816 0.33125,0.37136 0.19078,0.60961 -0.15305,0.25957 -0.42654,0.20362 -0.68207,0.16568 -0.23184,-0.0344 -0.46874,-0.0342 -0.70102,-0.0664 -0.23583,-0.0327 -0.48627,-0.0463 -0.69917,-0.13952 -0.399,-0.17464 -0.77552,-0.40066 -1.14997,-0.62387 0.25202,0.0741 0.37747,-0.0655 0.49587,-0.23628 0.36071,0.4435 0.83813,0.61469 1.35985,0.65633 0.13105,0.0105 0.33182,-0.0953 0.39225,-0.2065 0.0451,-0.0831 -0.0456,-0.30484 -0.14199,-0.38876 -0.43295,-0.37683 -0.92124,-0.62354 -1.51578,-0.503 0.15105,-0.062 0.2979,-0.0879 0.4343,-0.14069 0.10538,-0.0408 0.19767,-0.11543 0.29578,-0.17503 z"
         id="path72-8-6"
         style="stroke-width:0.0658432" />
      <path
         fill="#0d437c"
         opacity="1"
         stroke="none"
         d="m 117.50707,192.64985 c -0.0975,0.0581 -0.18979,0.13271 -0.29517,0.17354 -0.1364,0.0528 -0.28325,0.0787 -0.44184,0.15262 -0.0321,0.0483 -0.0499,0.0532 -0.086,0.0594 -0.0285,0.0288 -0.0407,0.0494 -0.0524,0.0842 5.3e-4,0.0142 -0.0162,0.0373 -0.0367,0.0412 0.01,0.0787 0.0396,0.15345 0.0701,0.22919 4.6e-4,9.5e-4 0.003,0.001 0.003,0.001 -0.10278,0.1854 -0.22823,0.32504 -0.49324,0.23213 -0.0244,-2e-4 -0.0539,-0.003 -0.0689,-0.0343 -0.061,-0.0507 -0.10696,-0.0704 -0.15294,-0.0902 0,0 0.008,-0.003 9.7e-4,-0.0177 -0.0304,-0.0211 -0.0542,-0.0278 -0.078,-0.0344 0,0 0.01,-0.002 0.005,-0.0209 -0.0431,-0.0351 -0.0817,-0.0517 -0.12041,-0.0683 -0.0212,0.002 -0.0385,-0.005 -0.0639,-0.0547 -0.0352,-0.0464 -0.0583,-0.0598 -0.0815,-0.0733 -0.0825,-0.112 -0.18795,-0.21384 -0.24305,-0.33801 -0.13495,-0.3041 0.005,-0.5528 0.33832,-0.58653 0.22547,-0.0228 0.46084,-0.0238 0.68303,0.0152 0.30837,0.0542 0.60855,0.15499 0.94039,0.27008 0.0758,0.0425 0.12344,0.0507 0.17108,0.0589 0,0 0.002,0.002 0.002,4e-4 z"
         id="path73-8-5"
         style="stroke-width:0.0658432" />
      <path
         fill="#0c3e72"
         opacity="1"
         stroke="none"
         d="m 117.49166,192.63875 c -0.0345,0.002 -0.0822,-0.006 -0.13503,-0.0352 0.0371,-0.006 0.0795,0.009 0.13503,0.0352 z"
         id="path74-8-5"
         style="stroke-width:0.0658432" />
      <path
         fill="#0c3e72"
         opacity="1"
         stroke="none"
         d="m 115.96154,193.51517 c 0.037,0.004 0.083,0.0233 0.13368,0.0634 -0.0384,-0.002 -0.0815,-0.0247 -0.13368,-0.0634 z"
         id="path75-1-4"
         style="stroke-width:0.0658432" />
      <path
         fill="#0c3e72"
         opacity="1"
         stroke="none"
         d="m 115.76971,193.37506 c 0.0293,-7.2e-4 0.068,0.0159 0.10804,0.0549 -0.032,0.002 -0.0654,-0.0176 -0.10804,-0.0549 z"
         id="path76-6-8"
         style="stroke-width:0.0658432" />
      <path
         fill="#0c3e72"
         opacity="1"
         stroke="none"
         d="m 115.62383,193.24782 c 0.0143,-0.005 0.0375,0.009 0.0682,0.0414 -0.0148,0.005 -0.037,-0.009 -0.0682,-0.0414 z"
         id="path77-9-5"
         style="stroke-width:0.0658432" />
      <path
         fill="#0c3e72"
         opacity="1"
         stroke="none"
         d="m 115.88485,193.46229 c 0.0145,-0.009 0.0382,-0.002 0.0683,0.0232 -0.0154,0.01 -0.0372,9.3e-4 -0.0683,-0.0232 z"
         id="path78-0-9"
         style="stroke-width:0.0658432" />
      <path
         fill="#f3f5f7"
         opacity="1"
         stroke="none"
         d="m 116.70039,193.02715 c 0.0197,0.002 0.0376,-0.003 0.061,-0.0267 0.61079,-0.15695 1.09908,0.0898 1.53203,0.46659 0.0964,0.0839 0.18712,0.30569 0.14199,0.38876 -0.0604,0.1112 -0.2612,0.21697 -0.39225,0.2065 -0.52172,-0.0416 -0.99914,-0.21283 -1.35985,-0.65633 -0.0156,-0.0146 -0.0177,-0.0151 -0.0227,-0.0392 -0.0184,-0.0861 -0.0317,-0.14796 -0.0451,-0.20986 0,0 0.0167,-0.0231 0.0322,-0.0459 0.0279,-0.0432 0.0403,-0.0635 0.0527,-0.0839 m 1.01791,0.71645 c 0.0731,-0.036 0.14623,-0.072 0.21933,-0.10801 -0.0417,-0.0709 -0.0668,-0.16512 -0.12804,-0.20846 -0.2012,-0.14247 -0.41995,-0.22141 -0.77105,-0.0264 0.25488,0.13639 0.44188,0.23646 0.67976,0.34288 z"
         id="path79-9-9"
         style="stroke-width:0.0658432" />
      <path
         fill="#0c3e72"
         opacity="1"
         stroke="none"
         d="m 116.59501,193.16081 c 0.0338,0.058 0.0472,0.11993 0.0651,0.20504 -0.0255,-0.0516 -0.0555,-0.12638 -0.0651,-0.20504 z"
         id="path80-4-0"
         style="stroke-width:0.0658432" />
      <path
         fill="#0c3e72"
         opacity="1"
         stroke="none"
         d="m 116.68407,193.03538 c 0.004,0.0122 -0.009,0.0325 -0.0369,0.0615 -0.004,-0.012 0.008,-0.0326 0.0369,-0.0615 z"
         id="path81-9-6"
         style="stroke-width:0.0658432" />
      <path
         fill="#0c3e72"
         opacity="1"
         stroke="none"
         d="m 117.69287,193.74042 c -0.21245,-0.10324 -0.39945,-0.20331 -0.65433,-0.3397 0.3511,-0.195 0.56985,-0.11606 0.77105,0.0264 0.0612,0.0433 0.0864,0.13755 0.12804,0.20846 -0.0731,0.036 -0.14622,0.072 -0.24476,0.10483 z"
         id="path82-7-7"
         style="stroke-width:0.0658432" />
      <g
         id="g20-9-8"
         transform="matrix(0.06222258,0,0,0.06214508,79.338565,139.11912)">
        <path
           fill="#0b5296"
           opacity="1"
           stroke="none"
           d="m 196.95119,275.39954 c -0.0325,0.31231 -0.19192,0.53299 -1.02054,0.5401 -1.17318,-0.65152 -1.72552,-1.44764 -2.44952,-1.6608 -2.18793,-0.64417 -4.44244,-1.06207 -6.67102,-1.56818 0.0174,2.29627 -0.0799,4.60147 0.0974,6.88532 0.0982,1.2655 0.65555,2.49542 1.00595,3.74136 -11.78186,12.21314 -24.15021,23.91907 -35.23474,36.73532 -32.22983,37.26505 -56.38281,79.40909 -73.90526,125.41962 -14.93335,39.21207 -23.52218,79.72323 -25.37253,121.65335 -0.0653,1.47913 -0.28654,2.95123 -0.46064,4.68011 -14.92319,0 -29.6549,0 -44.39112,0 2.4877,-128.61447 78.41472,-310.08984 261.05579,-397.59732 1.65012,0.27504 2.73621,0.32437 3.79269,0.37236 0.94004,8.37569 -0.45031,10.11011 -8.16415,10.401 -6.71365,0.25315 -8.15552,1.7687 -8.47452,8.71734 -0.0463,1.00752 -0.46866,1.99777 -0.81024,3.37088 -4.21845,-3.6758 -9.32132,-5.1176 -12.56522,-1.69664 -4.99759,5.27031 -8.92608,11.72123 -12.48129,18.13 -2.13684,3.85196 -6.83792,6.98287 -10.91467,4.84808 -4.35532,-2.28065 -7.11756,-1.2897 -9.3638,2.84406 -1.06641,1.96246 -2.57862,3.68271 -3.94849,5.59599 -1.14987,-0.91749 -2.12161,-1.69287 -3.03461,-2.42138 -7.59619,6.06739 -7.59619,6.06739 -10.02511,11.9967 -2.84659,6.94887 -2.20529,9.59648 4.31811,13.56833 3.57697,2.17786 2.81296,3.90657 1.45179,7.23419 -2.33136,5.69937 -8.78177,11.24533 -2.43427,18.21021 z"
           id="path5-1-1-0" />
        <path
           fill="#0b5092"
           opacity="1"
           stroke="none"
           d="m 197.27153,275.26709 c -6.66784,-6.83243 -0.21743,-12.37839 2.11393,-18.07776 1.36117,-3.32762 2.12518,-5.05633 -1.45179,-7.23419 -6.5234,-3.97185 -7.1647,-6.61946 -4.31811,-13.56833 2.42892,-5.92931 2.42892,-5.92931 10.02511,-11.9967 0.913,0.72851 1.88474,1.50389 3.03461,2.42138 1.36987,-1.91328 2.88208,-3.63353 3.94849,-5.59599 2.24624,-4.13376 5.00848,-5.12471 9.3638,-2.84406 4.07675,2.13479 8.77783,-0.99612 10.91467,-4.84808 3.55521,-6.40877 7.4837,-12.85969 12.48129,-18.13 3.2439,-3.42096 8.34677,-1.97916 12.56522,1.69664 0.34158,-1.37311 0.76398,-2.36336 0.81024,-3.37088 0.319,-6.94864 1.76087,-8.46419 8.47452,-8.71734 7.71384,-0.29089 9.10419,-2.02531 8.16415,-10.401 -1.05648,-0.048 -2.14257,-0.0973 -3.43222,-0.40698 20.85099,-8.43774 41.59671,-17.55647 63.02771,-24.58623 38.35102,-12.57988 78.00861,-18.45565 118.34992,-19.63049 1.82214,-0.0531 3.64715,-0.007 5.88604,-0.007 0,15.35725 0,30.54461 0,45.67991 -13.35491,1.08219 -26.643,1.74153 -39.82543,3.29679 -70.90369,8.36511 -135.25071,33.68118 -193.16822,75.38319 -7.55435,5.43933 -15.04092,10.97479 -22.48059,16.56982 -1.56439,1.17652 -2.78433,2.8111 -4.48334,4.3671 z"
           id="path6-9-7-3" />
        <path
           fill="#0b5092"
           opacity="1"
           stroke="none"
           d="m 188.2315,283.20697 c -0.66843,-1.11557 -1.22574,-2.34549 -1.32398,-3.61099 -0.17731,-2.28385 -0.08,-4.58905 -0.0974,-6.88532 2.22858,0.50611 4.48309,0.92401 6.67102,1.56818 0.724,0.21316 1.27634,1.00928 2.23926,1.6907 -2.16895,2.47028 -4.66993,4.78867 -7.48889,7.23743 z"
           id="path53-2-5" />
        <path
           fill="#0b5296"
           opacity="1"
           stroke="none"
           d="m 196.95119,275.39954 c -0.0325,0.31231 -0.19192,0.53299 -1.02054,0.5401 -1.17318,-0.65152 -1.72552,-1.44764 -2.44952,-1.6608 -2.18793,-0.64417 -4.44244,-1.06207 -6.67102,-1.56818 0.0174,2.29627 -0.0799,4.60147 0.0974,6.88532 0.0982,1.2655 0.65555,2.49542 1.00595,3.74136 -11.78186,12.21314 -24.15021,23.91907 -35.23474,36.73532 -32.22983,37.26505 -56.38281,79.40909 -73.90526,125.41962 -14.93335,39.21207 -23.52218,79.72323 -25.37253,121.65335 -0.0653,1.47913 -0.28654,2.95123 -0.46064,4.68011 -14.92319,0 -29.6549,0 -44.39112,0 2.4877,-128.61447 78.41472,-310.08984 261.05579,-397.59732 1.65012,0.27504 2.73621,0.32437 3.79269,0.37236 0.94004,8.37569 -0.45031,10.11011 -8.16415,10.401 -6.71365,0.25315 -8.15552,1.7687 -8.47452,8.71734 -0.0463,1.00752 -0.46866,1.99777 -0.81024,3.37088 -4.21845,-3.6758 -9.32132,-5.1176 -12.56522,-1.69664 -4.99759,5.27031 -8.92608,11.72123 -12.48129,18.13 -2.13684,3.85196 -6.83792,6.98287 -10.91467,4.84808 -4.35532,-2.28065 -7.11756,-1.2897 -9.3638,2.84406 -1.06641,1.96246 -2.57862,3.68271 -3.94849,5.59599 -1.14987,-0.91749 -2.12161,-1.69287 -3.03461,-2.42138 -7.59619,6.06739 -7.59619,6.06739 -10.02511,11.9967 -2.84659,6.94887 -2.20529,9.59648 4.31811,13.56833 3.57697,2.17786 2.81296,3.90657 1.45179,7.23419 -2.33136,5.69937 -8.78177,11.24533 -2.43427,18.21021 z"
           id="path16-6-3" />
      </g>
      <g
         id="g84-4-4"
         transform="matrix(-0.04392852,0.0292228,-0.02549225,-0.05057325,153.21545,195.2912)"
         style="fill:#0b5296;fill-opacity:1">
        <path
           fill="#0b5296"
           opacity="1"
           stroke="none"
           d="m 196.95119,275.39954 c -0.0325,0.31231 -0.19192,0.53299 -1.02054,0.5401 -1.17318,-0.65152 -1.72552,-1.44764 -2.44952,-1.6608 -2.18793,-0.64417 -4.44244,-1.06207 -6.67102,-1.56818 0.0174,2.29627 -0.0799,4.60147 0.0974,6.88532 0.0982,1.2655 0.65555,2.49542 1.00595,3.74136 -11.78186,12.21314 -24.15021,23.91907 -35.23474,36.73532 -32.22983,37.26505 -56.38281,79.40909 -73.90526,125.41962 -14.93335,39.21207 -23.52218,79.72323 -25.37253,121.65335 -0.0653,1.47913 -0.28654,2.95123 -0.46064,4.68011 -14.92319,0 -29.6549,0 -44.39112,0 2.4877,-128.61447 78.41472,-310.08984 261.05579,-397.59732 1.65012,0.27504 2.73621,0.32437 3.79269,0.37236 0.94004,8.37569 -0.45031,10.11011 -8.16415,10.401 -6.71365,0.25315 -8.15552,1.7687 -8.47452,8.71734 -0.0463,1.00752 -0.46866,1.99777 -0.81024,3.37088 -4.21845,-3.6758 -9.32132,-5.1176 -12.56522,-1.69664 -4.99759,5.27031 -8.92608,11.72123 -12.48129,18.13 -2.13684,3.85196 -6.83792,6.98287 -10.91467,4.84808 -4.35532,-2.28065 -7.11756,-1.2897 -9.3638,2.84406 -1.06641,1.96246 -2.57862,3.68271 -3.94849,5.59599 -1.14987,-0.91749 -2.12161,-1.69287 -3.03461,-2.42138 -7.59619,6.06739 -7.59619,6.06739 -10.02511,11.9967 -2.84659,6.94887 -2.20529,9.59648 4.31811,13.56833 3.57697,2.17786 2.81296,3.90657 1.45179,7.23419 -2.33136,5.69937 -8.78177,11.24533 -2.43427,18.21021 z"
           id="path28-5-9"
           style="fill:#0b5296;fill-opacity:1" />
        <path
           fill="#0b5092"
           opacity="1"
           stroke="none"
           d="m 197.27153,275.26709 c -6.66784,-6.83243 -0.21743,-12.37839 2.11393,-18.07776 1.36117,-3.32762 2.12518,-5.05633 -1.45179,-7.23419 -6.5234,-3.97185 -7.1647,-6.61946 -4.31811,-13.56833 2.42892,-5.92931 2.42892,-5.92931 10.02511,-11.9967 0.913,0.72851 1.88474,1.50389 3.03461,2.42138 1.36987,-1.91328 2.88208,-3.63353 3.94849,-5.59599 2.24624,-4.13376 5.00848,-5.12471 9.3638,-2.84406 4.07675,2.13479 8.77783,-0.99612 10.91467,-4.84808 3.55521,-6.40877 7.4837,-12.85969 12.48129,-18.13 3.2439,-3.42096 8.34677,-1.97916 12.56522,1.69664 0.34158,-1.37311 0.76398,-2.36336 0.81024,-3.37088 0.319,-6.94864 1.76087,-8.46419 8.47452,-8.71734 7.71384,-0.29089 9.10419,-2.02531 8.16415,-10.401 -1.05648,-0.048 -2.14257,-0.0973 -3.43222,-0.40698 20.85099,-8.43774 41.59671,-17.55647 63.02771,-24.58623 38.35102,-12.57988 78.00861,-18.45565 118.34992,-19.63049 1.82214,-0.0531 3.64715,-0.007 5.88604,-0.007 0,15.35725 0,30.54461 0,45.67991 -13.35491,1.08219 -26.643,1.74153 -39.82543,3.29679 -70.90369,8.36511 -135.25071,33.68118 -193.16822,75.38319 -7.55435,5.43933 -15.04092,10.97479 -22.48059,16.56982 -1.56439,1.17652 -2.78433,2.8111 -4.48334,4.3671 z"
           id="path32-8-7"
           style="fill:#0b5296;fill-opacity:1" />
        <path
           fill="#0b5092"
           opacity="1"
           stroke="none"
           d="m 188.2315,283.20697 c -0.66843,-1.11557 -1.22574,-2.34549 -1.32398,-3.61099 -0.17731,-2.28385 -0.08,-4.58905 -0.0974,-6.88532 2.22858,0.50611 4.48309,0.92401 6.67102,1.56818 0.724,0.21316 1.27634,1.00928 2.23926,1.6907 -2.16895,2.47028 -4.66993,4.78867 -7.48889,7.23743 z"
           id="path83-8-6"
           style="fill:#0b5296;fill-opacity:1" />
        <path
           fill="#0b5296"
           opacity="1"
           stroke="none"
           d="m 196.95119,275.39954 c -0.0325,0.31231 -0.19192,0.53299 -1.02054,0.5401 -1.17318,-0.65152 -1.72552,-1.44764 -2.44952,-1.6608 -2.18793,-0.64417 -4.44244,-1.06207 -6.67102,-1.56818 0.0174,2.29627 -0.0799,4.60147 0.0974,6.88532 0.0982,1.2655 0.65555,2.49542 1.00595,3.74136 -11.78186,12.21314 -24.15021,23.91907 -35.23474,36.73532 -32.22983,37.26505 -56.38281,79.40909 -73.90526,125.41962 -14.93335,39.21207 -23.52218,79.72323 -25.37253,121.65335 -0.0653,1.47913 -0.28654,2.95123 -0.46064,4.68011 -14.92319,0 -29.6549,0 -44.39112,0 2.4877,-128.61447 78.41472,-310.08984 261.05579,-397.59732 1.65012,0.27504 2.73621,0.32437 3.79269,0.37236 0.94004,8.37569 -0.45031,10.11011 -8.16415,10.401 -6.71365,0.25315 -8.15552,1.7687 -8.47452,8.71734 -0.0463,1.00752 -0.46866,1.99777 -0.81024,3.37088 -4.21845,-3.6758 -9.32132,-5.1176 -12.56522,-1.69664 -4.99759,5.27031 -8.92608,11.72123 -12.48129,18.13 -2.13684,3.85196 -6.83792,6.98287 -10.91467,4.84808 -4.35532,-2.28065 -7.11756,-1.2897 -9.3638,2.84406 -1.06641,1.96246 -2.57862,3.68271 -3.94849,5.59599 -1.14987,-0.91749 -2.12161,-1.69287 -3.03461,-2.42138 -7.59619,6.06739 -7.59619,6.06739 -10.02511,11.9967 -2.84659,6.94887 -2.20529,9.59648 4.31811,13.56833 3.57697,2.17786 2.81296,3.90657 1.45179,7.23419 -2.33136,5.69937 -8.78177,11.24533 -2.43427,18.21021 z"
           id="path84-6-3"
           style="fill:#0b5296;fill-opacity:1" />
      </g>
      <g
         id="g85-1-2"
         style="fill:#008000"
         transform="matrix(0.06584324,0,0,0.06584324,83.592056,40.000644)">
        <path
           fill="#0d5497"
           opacity="1"
           stroke="none"
           d="m 533.1986,2481.3371 c 2.32013,-8.1988 4.27697,-16.6575 11.40088,-22.3194 14.82226,-11.7806 31.75665,-15.4779 50.31689,-12.821 16.65784,2.3847 32.29303,8.0015 47.57233,14.7854 0.73523,0.3264 1.64532,0.7074 2.01873,1.3341 7.56714,12.701 15.06757,25.4417 23.18329,39.1943 -17.49749,10.0747 -34.64697,20.6267 -52.40179,30.0361 -42.13819,22.3316 -87.06879,36.8124 -134.07269,44.2589 -60.81196,9.6339 -121.14222,6.8558 -180.81067,-9.0994 -107.49817,-28.745 -193.62809,-89.0604 -261.147427,-176.676 -49.0421,-63.6388 -79.59728,-135.4799 -91.65897,-214.8577 -3.29121,-21.6593 -3.50633,-43.787 -5.09305,-65.7025 -0.10571,-1.4601 0.1297,-2.9448 0.22301,-4.7362 15.43625,0 30.64355,0 46.16774,0 1.00126,122.7623 45.4985,226.2746 135.924467,310.3309 -2.54236,0.7665 -4.68512,1.415 -6.82944,2.0585 -2.19098,0.6574 -4.38351,1.3099 -6.74753,2.016 21.68729,20.8435 42.84656,41.5866 64.49085,61.8108 10.93142,10.2142 24.51242,16.4871 37.9093,22.9255 6.55371,3.1496 13.02023,6.7218 18.92059,10.9483 26.1182,18.7086 54.71872,30.8974 86.89362,33.8638 16.65564,1.5356 33.26861,0.9514 49.82629,-1.736 3.04389,-0.4939 6.66608,-0.066 9.49603,1.154 56.14692,24.2139 110.42859,19.3284 162.96271,-10.5295 11.35248,-6.452 21.95862,-14.2172 33.74768,-21.9262 -11.54449,-7.3624 -22.02484,-14.0461 -32.83746,-20.9417 13.98572,-10.6341 28.83337,-18.9082 45.44812,-24.1284 -9.7597,-4.3866 -35.51325,0.6692 -54.59143,10.6277 -0.34168,0.077 -0.31207,0.1297 -0.31207,0.1297 z"
           id="path3-7-2"
           style="fill:#008000;fill-opacity:1" />
        <path
           fill="#7eb72b"
           opacity="1"
           stroke="none"
           d="m 614.85795,1667.8076 c 56.87156,27.4191 104.78247,66.0718 144.56832,115.4697 18.44457,22.9007 34.52567,47.4302 48.67097,74.0983 -12.22634,7.2915 -24.32949,14.5094 -36.05578,21.5027 -74.73319,-128.6642 -184.07665,-198.8577 -330.1673,-208.845 0,-14.4562 0,-29.315 0,-44.899 60.47777,2.1912 118.00419,16.0745 172.98379,42.6733 z"
           id="path4-6-45-0"
           style="fill:#008000;fill-opacity:1;stroke-width:0.986412" />
        <path
           fill="#73ad27"
           opacity="1"
           stroke="none"
           d="m 158.98427,2393.2276 c -0.6355,-0.6495 -1.27096,-1.299 -1.9389,-2.6652 0.79913,-2.4885 1.1817,-5.1733 2.55294,-5.8476 3.1395,-1.5438 2.70942,-2.9484 1.27564,-5.3824 -4.23377,-7.1877 -4.04636,-7.4492 4.10593,-8.4004 0.23782,-0.028 0.43216,-0.4285 0.5906,-0.596 -1.71884,-8.325 -8.41177,-9.016 -15.53244,-9.4475 0.46195,-2.5615 0.48505,-4.7579 1.27594,-6.6299 1.49298,-3.534 -0.11856,-5.51 -3.19821,-5.3943 -3.42239,0.1285 -6.79642,1.5444 -10.1915,2.3998 -0.77456,-1.7317 -1.54913,-3.4634 -1.96969,-5.6268 1.19644,-1.1559 2.1492,-1.7859 2.86242,-2.6207 3.29996,-3.8623 3.04276,-4.7834 -1.71939,-6.3098 -0.92346,-0.296 -1.92294,-0.3548 -2.88736,-0.523 -0.80392,-2.705 -1.60782,-5.41 -2.08191,-8.5631 0.72107,-0.8158 1.11237,-1.1835 1.50367,-1.5512 -0.76813,-0.2962 -1.53629,-0.5924 -2.30445,-0.8886 -2.00613,-14.336 -4.01742,-28.6713 -6.00109,-43.0104 -0.0865,-0.6251 0.0801,-1.2852 0.16866,-2.4565 3.35514,1.1702 6.46854,2.1876 9.53284,3.3359 23.21054,8.6983 46.86087,16.3928 68.44391,28.9045 24.05145,13.9427 40.73999,33.5454 45.97366,61.5428 2.78299,14.8875 2.5495,29.7788 -0.8844,44.9213 -6.46078,-1.6317 -11.64914,-3.2729 -14.74777,-10.5208 -9.94256,-23.2564 -26.74859,-41.5165 -45.47122,-58.0281 -0.26266,0.3202 -0.20975,0.3402 -0.0766,-0.052 -0.31198,-0.1043 -0.75708,0.1838 -1.41568,0.733 -1.74966,0.4166 -3.52716,1.1477 -4.7785,0.6234 -4.39347,-1.841 -6.78971,-0.7661 -8.05646,3.9143 -0.47531,1.7563 -1.90604,3.9912 -3.44763,4.5818 -4.43302,1.6986 -4.04514,3.5817 -1.15717,6.3796 1.91529,1.8556 2.95066,4.2647 -0.31735,5.4694 -3.56445,1.3138 -3.33606,3.594 -2.60907,6.307 0.67926,2.5349 1.49002,5.0345 2.16992,7.3058 -1.35525,1.6433 -2.41009,3.39 -3.89889,4.6051 -1.7244,1.4075 -3.83023,2.3476 -5.77045,3.4907 m 23.94928,-48.2638 c 0.26721,0.2251 0.53442,0.4502 1.10123,1.2918 0.84295,0.7903 1.68594,1.5807 2.52893,2.371 0.21899,-0.2674 0.43802,-0.5349 0.65704,-0.8023 -1.03045,-0.8917 -2.06088,-1.7833 -3.18115,-3.2013 -0.2944,-0.1647 -0.58878,-0.3293 -1.04761,-1.0734 -0.27322,-0.029 -0.54645,-0.058 -0.81967,-0.087 0.19556,0.3338 0.39114,0.6675 0.76123,1.5014 z"
           id="path8-4-7"
           style="fill:#008000" />
        <path
           fill="#83bc2d"
           opacity="1"
           stroke="none"
           d="m 408.70787,2468.7905 c -20.72778,17.8645 -31.18713,40.5187 -31.21612,68.8894 -12.65955,-11.1334 -19.85132,-23.9454 -19.99909,-39.9169 -0.23553,-25.4523 12.30249,-43.5705 33.79615,-56.0128 15.47894,-8.9606 32.8352,-12.6929 49.84558,-17.3296 4.45794,-1.2151 8.97729,-2.2048 14.2536,-3.4891 -0.4621,3.3929 -0.66059,6.1571 -1.23462,8.8411 -2.60639,12.186 -5.03119,24.4216 -8.07178,36.5009 -3.16754,12.5832 -9.79932,23.34 -19.65869,31.8048 -11.06854,9.5031 -22.45752,18.633 -34.58118,28.6472 0.52857,-21.2008 6.47651,-39.6028 17.89893,-56.9655 -0.18567,-0.6971 -0.60919,-0.8333 -1.03278,-0.9695 z"
           id="path10-7-9"
           style="fill:#008000" />
        <path
           fill="#81b92d"
           opacity="1"
           stroke="none"
           d="m 430.6107,2510.624 c 5.52265,-5.9964 10.7071,-11.8399 16.10096,-17.4832 1.73675,-1.817 3.80456,-3.7397 6.09576,-4.5373 17.50964,-6.0951 34.91107,-5.4937 52.28864,1.0005 16.96283,6.3393 32.1502,15.8882 47.67322,25.0629 -26.73682,29.3272 -105.91462,45.683 -146.49128,30.2078 9.61145,-11.8685 21.97773,-19.4498 36.16773,-23.4458 14.00415,-3.9437 28.43011,-6.3898 41.09381,-9.1492 -11.42792,-4.1948 -26.55084,-4.0027 -56.41699,1.4887 1.29278,-1.1658 2.26202,-2.0398 3.48815,-3.1444 z"
           id="path12-2-1"
           style="fill:#008000" />
        <path
           fill="#72ac2b"
           opacity="1"
           stroke="none"
           d="m 349.69316,2537.0478 c -30.39514,1.0706 -59.31909,-3.089 -85.75497,-18.1055 -10.47348,-5.9492 -20.24851,-13.128 -30.54343,-19.8794 24.78958,-23.9244 74.31232,-47.8598 115.0069,-25.4552 -1.05664,5.0339 -2.13379,10.1658 -3.33069,15.8682 -21.32965,-2.1235 -42.31604,-0.4366 -64.12588,7.5576 29.80905,4.8245 53.36435,18.7953 74.8945,39.5341 -2.69794,0.2212 -4.19727,0.3441 -6.14643,0.4802 z"
           id="path13-8-1"
           style="fill:#008000" />
        <path
           fill="#0c69bb"
           opacity="1"
           stroke="none"
           d="m 198.03218,1822.204 c -22.56836,33.3885 -18.1553,73.8936 7.63449,99.7373 2.16813,2.1726 2.41108,7.5079 0.25013,8.8953 -3.1568,2.0267 -5.7984,0.8627 -8.33902,-1.7597 -27.88379,-28.781 -32.37973,-72.166 -11.09253,-107.9526 20.018,-33.6528 57.99136,-52.1055 96.75137,-46.7025 14.9635,2.0858 28.36145,7.9961 40.0697,18.1396 -2.0777,2.7673 -3.94659,5.2564 -6.05328,8.0623 -19.70703,-15.546 -41.87082,-19.9561 -65.68512,-14.8453 -22.4343,4.8146 -40.07059,17.419 -53.53574,36.4256 z"
           id="path21-94-7"
           style="fill:#008000;fill-opacity:1" />
        <path
           fill="#0c68ba"
           opacity="1"
           stroke="none"
           d="m 640.77483,2196.8391 c -20.68677,40.4388 -64.04517,59.89 -106.85864,48.0882 -10.69239,-2.9474 -20.22608,-8.1931 -29.18122,-15.2024 2.28876,-2.7523 4.28308,-5.1507 6.5597,-7.8884 18.0628,13.8674 38.26232,18.6851 60.35028,15.1549 16.39068,-2.6197 30.71002,-9.81 42.76324,-21.2108 15.14765,-14.3279 23.35187,-31.9836 25.12268,-52.8093 1.78162,-20.9523 -4.77441,-39.2784 -17.15057,-56.1148 2.5155,-2.2291 4.73614,-4.1968 6.95367,-6.1618 19.87305,21.4571 28.74274,59.5636 11.44086,96.1444 z"
           id="path24-3-1"
           style="fill:#008000;fill-opacity:1" />
        <path
           fill="#76b028"
           opacity="1"
           stroke="none"
           d="m 159.11183,2393.5407 c 1.81266,-1.4562 3.91849,-2.3963 5.64289,-3.8038 1.4888,-1.2151 2.54364,-2.9619 3.89889,-4.6052 -0.6799,-2.2713 -1.49066,-4.7708 -2.16992,-7.3057 -0.72699,-2.713 -0.95538,-4.9932 2.60907,-6.3071 3.26801,-1.2046 2.23264,-3.6137 0.31735,-5.4693 -2.88797,-2.7979 -3.27585,-4.681 1.15717,-6.3796 1.54159,-0.5906 2.97232,-2.8255 3.44763,-4.5818 1.26675,-4.6805 3.66299,-5.7554 8.05646,-3.9143 1.25134,0.5243 3.02884,-0.2068 5.05185,-0.5614 0.66095,-0.2669 0.83508,-0.3348 1.00918,-0.4027 0,0 -0.0529,-0.02 -0.0695,-0.043 3.5495,4.703 7.05921,9.4727 10.69269,14.1462 10.31809,13.2715 20.33969,26.7227 26.67432,42.4903 0.58987,1.4682 1.09015,2.9724 1.82916,5.0011 -7.147,-1.2342 -13.60394,-2.7687 -20.14703,-3.3778 -9.08503,-0.8457 -18.2349,-1.3134 -27.35663,-1.3078 -4.33807,0 -7.7482,-1.095 -10.76831,-3.9915 -3.23679,-3.1041 -6.49744,-6.1834 -9.87522,-9.5867 z"
           id="path27-11-1"
           style="fill:#008000" />
        <path
           fill="#138fde"
           opacity="1"
           stroke="none"
           d="m 625.85588,1857.4978 c 1.2024,11.2746 1.10565,21.9873 -3.21899,32.2581 -6.62494,-1.4347 -6.84638,-2.0302 -5.48847,-8.0333 5.21094,-23.0376 -1.59051,-42.4533 -18.71356,-58.171 -16.20489,-14.875 -35.29681,-18.2565 -56.22863,-12.3173 -2.37378,0.6735 -4.65412,1.6765 -7.33063,2.6557 -1.25135,-1.9736 -2.46186,-3.8828 -3.97595,-6.2709 12.47558,-6.8963 25.43609,-8.8865 38.8623,-6.5885 28.39276,4.8596 49.24561,25.9771 56.09393,56.4672 z"
           id="path35-4-0"
           style="fill:#008000;fill-opacity:1" />
        <path
           fill="#138fde"
           opacity="1"
           stroke="none"
           d="m 206.15184,2181.1457 c -5.98614,-15.7016 -6.40402,-31.0297 -0.36883,-46.9448 2.38818,1.4491 4.32034,2.6215 6.50366,3.9463 -4.05759,12.5523 -4.21307,24.9797 -0.15244,37.3916 7.39286,22.5974 29.02381,39.1816 52.44678,39.5528 5.51019,0.087 7.24573,2.5409 7.84799,7.1609 -22.03897,4.8212 -54.39392,-10.8882 -66.27716,-41.1068 z"
           id="path40-6-1"
           style="fill:#008000;fill-opacity:1" />
        <path
           fill="#0d65b7"
           opacity="1"
           stroke="none"
           d="m 225.02971,2088.0396 c -1.56497,0.01 -3.24676,0.2984 -3.94793,-0.3981 -1.73642,-1.7249 -3.02439,-3.9013 -4.48655,-5.8881 22.99689,-18.3432 60.63715,-18.799 87.84,-5.0765 -0.56384,0.7998 -1.13904,1.5449 -1.63959,2.3372 -2.87671,4.5536 -6.19208,5.1681 -11.57428,3.3754 -22.6026,-7.5285 -44.79303,-6.9355 -66.19165,5.6501 z"
           id="path42-6-4"
           style="fill:#008000;fill-opacity:1" />
        <path
           fill="#0c69bb"
           opacity="1"
           stroke="none"
           d="m 484.53765,1840.922 c -5.85651,17.483 -5.99384,34.6304 -0.4842,51.8177 2.64569,8.2535 2.64014,8.2553 -4.68707,13.3298 -14.40704,-16.6908 -12.22839,-62.319 4.46399,-85.598 2.43494,1.8073 4.87598,3.6192 7.42975,5.5147 -2.25177,4.9802 -4.41828,9.7718 -6.72247,14.9358 z"
           id="path47-2-7"
           style="fill:#008000;fill-opacity:1" />
        <path
           fill="#76b028"
           opacity="1"
           stroke="none"
           d="m 137.92235,2351.6818 c 3.397,-1.2731 6.77103,-2.689 10.19342,-2.8175 3.07965,-0.1157 4.69119,1.8603 3.19821,5.3943 -0.79089,1.872 -0.81399,4.0684 -1.27594,6.6299 7.12067,0.4315 13.8136,1.1225 15.53244,9.4475 -0.15844,0.1675 -0.35278,0.5682 -0.5906,0.596 -8.15229,0.9512 -8.3397,1.2127 -4.10593,8.4004 1.43378,2.434 1.86386,3.8386 -1.27564,5.3824 -1.37124,0.6743 -1.75381,3.3591 -2.62658,5.5801 -9.54572,-10.874 -15.99518,-23.7 -19.04938,-38.6131 z"
           id="path51-3-3"
           style="fill:#008000" />
        <path
           fill="#81bb2e"
           opacity="1"
           stroke="none"
           d="m 345.92986,2504.2686 c 0.71478,3.7879 1.39068,7.1657 2.0462,10.4417 -7.87274,-3.3943 -15.48706,-7.0462 -23.37067,-9.9726 -7.90777,-2.9355 -16.08416,-5.1474 -24.07263,-8.0918 13.61182,-2.1959 26.97663,-1.1407 40.16242,2.6172 2.42676,0.6916 5.62298,0.628 5.23468,5.0055 z"
           id="path52-72-4"
           style="fill:#008000" />
        <path
           fill="#76b028"
           opacity="1"
           stroke="none"
           d="m 134.10808,2336.5918 c 1.06659,-0.2398 2.06607,-0.181 2.98953,0.115 4.76215,1.5264 5.01935,2.4475 1.71939,6.3098 -0.71322,0.8348 -1.66598,1.4648 -2.89538,2.2425 -0.89661,-2.7175 -1.40616,-5.4884 -1.81354,-8.6673 z"
           id="path54-0-5"
           style="fill:#008000" />
      </g>
    </g>
    <g
       id="g1"
       transform="translate(-1.4865624,0.54056814)">
      <text
         xml:space="preserve"
         style="font-size:4.42521px;font-family:'Gill Sans MT';-inkscape-font-specification:'Gill Sans MT';fill:#0b5296;fill-opacity:1;stroke:none;stroke-width:0.203588;stroke-dasharray:none;stroke-opacity:1"
         x="-255.90984"
         y="-1.8036289"
         id="text398-5-4"><tspan
           sodipodi:role="line"
           id="tspan398-5-6"
           style="fill:#0b5296;fill-opacity:1;stroke:none;stroke-width:0.203588;stroke-dasharray:none;stroke-opacity:1"
           x="-255.90984"
           y="-1.8036289">Drone-Based <tspan
   style="fill:#008000;fill-opacity:1;stroke:none;stroke-width:0.203588;stroke-dasharray:none;stroke-opacity:1"
   id="tspan397-0-1">Waste Detection</tspan> and Monitoring System</tspan></text>
      <g
         id="g89-8-5"
         transform="matrix(0.43494235,0,0,0.43494235,-323.42567,-81.882955)">
        <path
           fill="#000000"
           opacity="1"
           stroke="none"
           d="m 187.59416,160.90144 c -0.38126,0.60365 -0.83105,1.082 -1.35129,1.50651 -0.51591,0.42099 -1.11542,0.70377 -1.74853,1.08715 1.54667,2.81296 3.07885,5.59957 4.59577,8.35842 -0.2334,0.26696 -0.44744,0.20246 -0.63612,0.20301 -1.80992,0.005 -3.62003,-0.0105 -5.42968,0.0121 -0.44529,0.006 -0.69068,-0.14804 -0.88807,-0.54187 -1.10787,-2.21048 -2.2403,-4.40864 -3.35825,-6.6141 -0.16175,-0.31907 -0.32178,-0.57089 -0.75059,-0.57547 -0.79444,-0.008 -0.89577,0.0636 -0.89646,0.87315 -0.002,2.03115 -0.0172,4.06251 0.009,6.09332 0.007,0.56107 -0.14068,0.78228 -0.74021,0.76848 -1.58788,-0.0365 -3.17735,-0.0264 -4.76576,-0.004 -0.4773,0.007 -0.62388,-0.16069 -0.62317,-0.62946 0.0111,-7.32017 0.0115,-14.64037 9.6e-4,-21.96055 -7.2e-4,-0.48941 0.15008,-0.67435 0.65561,-0.67167 3.09691,0.0164 6.19481,-0.0361 9.29066,0.0235 2.09339,0.0403 4.07019,0.5551 5.64075,2.06661 1.76493,1.69855 2.29976,3.85175 2.19319,6.21416 -0.0609,1.34926 -0.44401,2.60843 -1.19791,3.79054 m -8.50981,-6.73165 c -0.46233,-6e-4 -0.92477,0.005 -1.38695,-0.004 -0.36159,-0.007 -0.56727,0.11828 -0.56512,0.51972 0.007,1.38694 0.002,2.77396 -6e-4,4.16094 -4.8e-4,0.24921 0.0649,0.45303 0.35859,0.44919 1.20303,-0.0157 2.41625,0.13885 3.605,-0.13729 1.04473,-0.2427 1.80902,-1.29462 1.85519,-2.47845 0.0418,-1.07074 -0.60777,-1.97614 -1.65467,-2.33965 -0.68572,-0.2381 -1.39196,-0.14497 -2.21149,-0.1707 z"
           id="path1-8-8"
           style="fill:#0b5296;fill-opacity:1;stroke-width:0.12071" />
        <path
           fill="#000000"
           opacity="1"
           stroke="none"
           d="m 240.69695,170.80987 c 0.24687,0.39063 0.47119,0.74187 0.68866,1.08236 -0.14722,0.23262 -0.34645,0.16371 -0.51303,0.16436 -1.48834,0.006 -2.97701,-0.0139 -4.4649,0.0124 -0.50583,0.009 -0.66102,-0.17321 -0.66027,-0.6636 0.0111,-7.26074 0.007,-14.5215 0.0121,-21.78225 4.9e-4,-0.78317 0.0354,-0.80506 0.82619,-0.8069 1.83028,-0.004 3.66097,0.0157 5.49061,-0.02 0.59849,-0.0117 0.75149,0.20442 0.73938,0.7694 -0.0332,1.54801 0.003,3.09744 -0.023,4.6457 -0.009,0.55389 0.20781,0.75869 0.74325,0.75227 1.32727,-0.0159 2.65499,-0.0189 3.9822,-0.002 0.54196,0.007 0.7608,-0.21717 0.75647,-0.7546 -0.0127,-1.56869 0.0151,-3.13783 -0.01,-4.70621 -0.008,-0.52964 0.17643,-0.70042 0.69981,-0.6941 1.87022,0.0226 3.74103,0.0195 5.61131,-0.002 0.49716,-0.006 0.66041,0.1647 0.65959,0.66367 -0.012,7.32111 -0.008,14.64225 -0.006,21.96338 1.1e-4,0.34348 0.003,0.63749 -0.48671,0.63268 -1.7094,-0.0168 -3.41904,-0.008 -5.12858,-0.0113 -0.0774,-1.2e-4 -0.15464,-0.0293 -0.23067,-0.0447 -0.0953,-0.28654 0.14244,-0.41049 0.26169,-0.57451 0.83358,-1.14662 1.01031,-2.37887 0.51392,-3.70699 -0.0704,-0.18831 -0.12854,-0.38304 -0.21769,-0.56219 -0.51452,-1.03401 -0.45756,-2.03738 0.065,-3.06223 0.52601,-1.03161 0.63667,-2.10043 0.1095,-3.18919 -0.17052,-0.35216 -0.34031,-0.45315 -0.74497,-0.32106 -2.69915,0.88109 -5.40945,0.88151 -8.10741,-0.0108 -0.32866,-0.10869 -0.48527,-0.033 -0.61104,0.25397 -0.44412,1.01344 -0.51488,2.07257 0.0339,3.01939 0.70818,1.22196 0.73085,2.36119 0.0911,3.59648 -0.55426,1.0702 -0.59382,2.19606 -0.0806,3.358 m 2.78555,-10.6657 c 1.18132,0.0655 2.35993,0.18724 3.54539,0.0173 0.79809,-0.1144 1.59289,-0.23307 2.32561,-0.58185 0.51603,-0.24564 0.63492,-0.61234 0.27998,-0.86204 -0.82287,-0.57889 -1.77737,-0.67648 -2.80934,-0.72216 0.18552,0.37439 0.49664,0.32574 0.71474,0.44831 0.18209,0.10233 0.3646,0.20295 0.36692,0.43394 0.002,0.23507 -0.17142,0.36377 -0.37182,0.41947 -1.12563,0.31284 -2.2522,0.34261 -3.37969,-0.005 -0.28517,-0.088 -0.33015,-0.25235 -0.22374,-0.50257 0.14925,-0.35096 0.36033,-0.63579 0.77453,-0.67123 0.51547,-0.0441 0.63777,0.34423 0.72754,0.8184 0.51783,-0.41709 0.78846,-0.91338 1.06448,-1.38997 0.50314,-0.86877 0.22865,-1.51544 -0.72515,-1.80606 -0.58546,-0.1784 -1.12612,0.065 -1.41857,0.69357 -0.33862,0.72778 -0.62719,1.47874 -0.95982,2.20947 -0.0956,0.20998 -0.1521,0.57879 -0.53174,0.39416 -0.37282,-0.18131 -0.16144,-0.41896 -0.0157,-0.63997 0.0288,-0.0436 0.0232,-0.1099 0.0335,-0.16626 -0.47673,-0.0713 -1.04879,0.0537 -1.4907,0.32044 -0.55657,0.33587 -0.54882,0.704 0.0261,1.01772 0.61111,0.33348 1.29999,0.40145 2.0675,0.57454 z"
           id="path2-8-3-1"
           style="fill:#0b5296;fill-opacity:1;stroke-width:0.12071" />
        <path
           fill="#000000"
           opacity="1"
           stroke="none"
           d="m 225.98933,172.29973 c -2.0862,0.17334 -4.06382,-0.0214 -5.96556,-0.8084 -2.791,-1.15496 -4.19895,-3.30061 -4.51875,-6.2412 -0.0408,-0.37524 0.0903,-0.57591 0.48791,-0.57551 1.64875,0.002 3.29748,-0.001 4.94623,-0.002 0.30932,-1.2e-4 0.45014,0.14616 0.51437,0.46178 0.36014,1.76987 1.98746,2.24894 3.41139,2.20972 0.5569,-0.0153 1.1126,-0.15163 1.61552,-0.43679 1.17047,-0.66369 1.2248,-2.12464 0.0953,-2.8429 -0.65355,-0.41558 -1.40158,-0.59587 -2.13149,-0.8172 -1.80585,-0.5476 -3.64877,-0.99455 -5.31384,-1.92766 -2.46745,-1.38277 -3.43272,-3.62766 -3.25977,-6.11347 0.26484,-3.80637 2.9344,-5.85334 5.97988,-6.45524 2.86037,-0.56531 5.65301,-0.44883 8.22142,1.09726 2.06074,1.24048 2.96917,3.19142 3.17087,5.52404 0.0281,0.32478 -0.11094,0.49101 -0.44668,0.49079 -1.66889,-0.001 -3.33779,1.2e-4 -5.00669,0.003 -0.28218,4.8e-4 -0.45015,-0.11878 -0.50705,-0.40447 -0.43326,-2.17534 -3.48864,-2.33966 -4.70592,-1.38313 -0.81238,0.63835 -0.86283,1.82466 -0.10166,2.54067 0.48128,0.45273 1.08357,0.67835 1.69766,0.88178 1.69663,0.56205 3.45778,0.91995 5.11492,1.60515 1.20456,0.49805 2.29367,1.16006 3.08557,2.23509 2.17806,2.95676 1.27165,7.54008 -1.89494,9.54025 -1.35374,0.85508 -2.84478,1.29018 -4.48865,1.41805 z"
           id="path3-8-5-8"
           style="fill:#0b5296;fill-opacity:1;stroke-width:0.12071" />
        <path
           fill="#000000"
           opacity="1"
           stroke="none"
           d="m 163.98052,164.29539 c -6.1e-4,2.39404 2.4e-4,4.72771 -0.003,7.06139 -9.7e-4,0.64465 -0.46766,0.93227 -1.06993,0.67009 -0.3097,-0.13481 -0.22833,-0.4152 -0.18906,-0.62803 0.11134,-0.60346 0.0731,-1.20102 0.0184,-1.80275 -0.0267,-0.29355 -0.10484,-0.51914 -0.40027,-0.68282 -0.45484,-0.252 -0.43834,-0.56401 -0.003,-0.8575 0.65324,-0.4407 0.63922,-1.18537 -0.0307,-1.6334 -0.39862,-0.26657 -0.39475,-0.56945 0.0106,-0.83295 0.67935,-0.44156 0.67669,-1.14431 -0.006,-1.63127 -0.38266,-0.27287 -0.40404,-0.63812 0.009,-0.84297 0.40128,-0.19921 0.46696,-0.50714 0.485,-0.88437 0.0648,-1.35478 -0.57447,-2.43754 -1.33857,-3.46977 -0.30963,-0.41828 -0.6928,-0.79132 -0.70647,-1.36389 -0.005,-0.2293 -0.16275,-0.30262 -0.36956,-0.30268 -0.28163,-9e-5 -0.56491,0.0173 -0.84457,-0.007 -0.58318,-0.05 -1.02635,-0.0157 -1.11239,0.75835 -0.052,0.46782 -0.52695,0.78995 -0.80733,1.17975 -0.71524,0.99437 -1.16392,2.05935 -1.05456,3.31445 0.029,0.33233 0.0561,0.59946 0.42108,0.78254 0.45605,0.22874 0.42332,0.58798 -0.0219,0.84566 -0.52158,0.3019 -0.56695,1.2208 -0.0769,1.55746 0.56258,0.3865 0.565,0.57634 0.0118,0.93131 -0.48747,0.31282 -0.47029,1.25981 0.0284,1.56668 0.511,0.31442 0.52153,0.60321 -0.005,0.90483 -0.29663,0.16999 -0.35755,0.4106 -0.35377,0.70471 0.008,0.64355 0.005,1.28777 0.0349,1.93033 0.0202,0.42615 -0.20334,0.50927 -0.55857,0.49842 -0.34624,-0.0106 -0.72132,0.0494 -0.70306,-0.48398 0.006,-0.18081 -0.001,-0.36207 -0.001,-0.54312 0.001,-5.21055 0.003,-10.42109 0.004,-15.63163 1.2e-4,-0.85296 -0.001,-0.85539 -0.87032,-0.85648 -1.24731,-0.002 -2.49488,-0.0136 -3.7418,0.009 -0.48815,0.009 -0.69302,-0.16306 -0.68757,-0.66153 0.0161,-1.46843 0.0147,-2.93723 9e-4,-4.4057 -0.005,-0.47979 0.1625,-0.6761 0.66955,-0.67528 5.93476,0.01 11.86956,0.005 17.80433,-0.007 0.43835,-8.5e-4 0.61548,0.15261 0.61112,0.5965 -0.0144,1.46844 -0.02,2.9373 4.8e-4,4.40558 0.008,0.57828 -0.22156,0.76692 -0.79226,0.75049 -1.22618,-0.0353 -2.45446,0.007 -3.68108,-0.0197 -0.52727,-0.0115 -0.69604,0.17904 -0.69246,0.70331 0.0205,2.99739 0.0117,5.99498 0.013,9.05286 m -4.33063,-9.78115 c -1.45985,-0.003 -1.46442,0.01 -1.38318,1.41021 0.0198,0.3407 0.12906,0.52587 0.49262,0.52217 0.60077,-0.006 1.20167,0.002 1.80251,0.001 0.24127,-4.8e-4 0.41067,-0.0725 0.46784,-0.35424 0.25718,-1.26727 0.003,-1.59317 -1.37979,-1.57922 z"
           id="path4-7-7-0"
           style="fill:#0b5296;fill-opacity:1;stroke-width:0.12071" />
        <path
           fill="#000000"
           opacity="1"
           stroke="none"
           d="m 204.36513,162.11284 c -0.40126,0.34716 -0.66495,0.80364 -1.28335,0.98106 -0.1399,-2.31714 -0.27671,-4.583 -0.41351,-6.84885 -0.0107,0.001 -0.0213,0.003 -0.032,0.004 -0.13931,2.23896 -0.27861,4.47793 -0.41586,6.68392 -0.26314,0.15945 -0.39528,-0.004 -0.52691,-0.10916 -1.57182,-1.25767 -2.42986,-2.91383 -2.66742,-4.89311 -0.43507,-3.6249 0.95488,-6.72381 2.8417,-9.66854 0.21133,-0.32982 0.36865,-0.72035 0.74186,-0.91852 0.26313,0.0535 0.35263,0.27598 0.47124,0.45236 1.59752,2.37559 2.8423,4.90811 3.18583,7.78537 0.28774,2.40998 -0.18002,4.64159 -1.90157,6.53148 z"
           id="path5-6-5-5"
           style="fill:#008000;fill-opacity:1;stroke-width:0.12071" />
        <path
           fill="#000000"
           opacity="1"
           stroke="none"
           d="m 196.99306,167.27434 c 1.63285,-0.74879 3.12651,-1.69228 4.88773,-2.37971 -0.20571,1.2855 -0.63304,2.32879 -1.27447,3.28475 -1.44322,2.15094 -3.52599,3.30205 -6.02304,3.74677 -1.42796,0.25431 -2.87357,0.33923 -4.32146,0.13204 -0.11518,-0.0165 -0.22753,-0.0528 -0.3925,-0.0921 0.16051,-1.08325 0.52225,-2.0793 0.97511,-3.03771 1.30884,-2.7699 3.32063,-4.70982 6.41821,-5.3384 1.26964,-0.25764 2.51822,-0.16352 3.7499,0.21316 0.16663,0.051 0.36028,0.0693 0.52479,0.33711 -1.73071,1.12777 -3.56006,2.11293 -5.17723,3.4365 0.19781,-0.0948 0.39562,-0.18969 0.63296,-0.30241 z"
           id="path6-2-0-3"
           style="fill:#008000;fill-opacity:1;stroke-width:0.12071" />
        <path
           fill="#000000"
           opacity="1"
           stroke="none"
           d="m 209.37484,163.97685 c 2.05235,0.77642 3.4921,2.18984 4.57506,3.99642 0.6443,1.07481 1.08627,2.2385 1.3847,3.45568 0.0704,0.28725 0.13806,0.57546 -0.29832,0.62399 -2.58712,0.2877 -5.10569,0.0946 -7.431,-1.19163 -2.28415,-1.26348 -3.64534,-3.20331 -4.13134,-5.9594 2.0386,0.81335 3.76763,1.96927 5.6632,2.78092 -1.60188,-1.34016 -3.46922,-2.30368 -5.29466,-3.62001 1.93503,-0.72343 3.70416,-0.71179 5.53236,-0.086 z"
           id="path7-7-9-5"
           style="fill:#008000;fill-opacity:1;stroke-width:0.12071" />
        <path
           fill="#000000"
           opacity="1"
           stroke="none"
           d="m 245.11922,157.74694 c -0.48716,-0.23907 -0.52664,-0.58331 -0.30305,-0.97207 0.19751,-0.34341 0.49215,-0.53124 0.90781,-0.39349 0.36417,0.12069 0.51087,0.39491 0.43546,0.75351 -0.11209,0.53297 -0.49241,0.68965 -1.04022,0.61205 z"
           id="path8-6-1-4"
           style="fill:#0b5296;fill-opacity:1;stroke-width:0.12071" />
      </g>
      <g
         id="g88-0-1"
         transform="matrix(0.52675546,0,0,0.52675546,-289.30898,-114.13337)">
        <path
           style="fill:#0b5296;fill-opacity:1;stroke-width:0.348929"
           d="m 219.19085,196.7789 c -0.65266,-0.25092 -1.35957,-0.90904 -1.7149,-1.59654 -0.2634,-0.50963 -0.29128,-0.643 -0.29147,-1.39442 -1.9e-4,-0.72709 0.033,-0.89936 0.26547,-1.37907 0.33749,-0.6963 0.93088,-1.29082 1.60255,-1.60557 0.44774,-0.20983 0.64941,-0.24646 1.3568,-0.24652 0.73774,-6e-5 0.89134,0.0305 1.37015,0.27319 1.13704,0.57612 1.83474,1.70428 1.84192,2.97832 0.003,0.58794 -0.037,0.74902 -0.34127,1.36477 -0.39859,0.80646 -0.93985,1.29941 -1.76622,1.60861 -0.67427,0.25227 -1.6627,0.25109 -2.32303,-0.002 z"
           id="path85-5-7" />
        <path
           style="fill:#008000;fill-opacity:1;stroke-width:0.348929"
           d="m 227.39481,192.42622 c -0.29339,-1.7372 -1.47949,-3.6019 -2.9191,-4.58918 -0.83876,-0.57521 -2.10241,-1.08056 -3.12013,-1.24775 l -0.34619,-0.0568 v -1.57853 -1.57855 l 0.73453,0.0613 c 2.1544,0.17967 4.48436,1.3679 6.17763,3.15048 1.48903,1.56755 2.56594,3.84859 2.74384,5.81178 l 0.0631,0.6967 h -1.61034 -1.61033 z"
           id="path88-0-7" />
        <path
           style="fill:#0b5296;fill-opacity:1;stroke-width:0.348929"
           d="m 210.11554,192.78054 c 0,-0.4804 0.235,-1.60468 0.50114,-2.39747 1.17672,-3.5054 4.1966,-6.16352 7.78162,-6.84945 0.37872,-0.0725 0.83132,-0.13175 1.00578,-0.13175 h 0.31717 l -0.0253,1.59133 -0.0253,1.59136 -0.47686,0.0685 c -0.73364,0.1055 -1.88396,0.562 -2.63195,1.04456 -1.59305,1.02776 -2.79542,2.79085 -3.13119,4.59144 -0.059,0.31661 -0.12155,0.62757 -0.13891,0.69104 -0.0237,0.0866 -0.42444,0.11541 -1.60394,0.11541 h -1.57234 z"
           id="path87-5-7" />
        <path
           style="fill:#ffffff;fill-opacity:1;stroke-width:0.348929"
           d="m 220.72582,194.4376 c 0.28106,-0.14533 0.37589,-0.30924 0.37589,-0.64966 0,-0.34041 -0.0948,-0.50431 -0.37589,-0.64965 -0.3622,-0.1873 -0.49047,-0.17098 -0.8172,0.10392 -0.43483,0.36588 -0.37413,0.92902 0.1314,1.21894 0.24658,0.14141 0.37532,0.13698 0.6858,-0.0236 z"
           id="path86-1-0" />
        <path
           style="fill:#008000;fill-opacity:1;stroke-width:0.348929"
           d="m 234.21125,193.74034 v -9.41815 l 2.60687,0.0245 2.60686,0.0245 1.82454,2.95427 c 1.0035,1.62483 2.45809,3.96681 3.23242,5.20439 0.77433,1.23756 1.53251,2.46313 1.68483,2.72346 l 0.27697,0.47333 0.0238,-5.70081 0.0238,-5.7008 h 2.30774 2.30775 l -0.0235,9.39363 -0.0235,9.39363 -2.51364,0.0245 -2.51365,0.0245 -0.24444,-0.39384 c -0.13444,-0.21662 -0.64941,-1.03778 -1.14436,-1.82482 -0.49498,-0.78703 -1.97036,-3.15506 -3.27866,-5.26227 -1.3083,-2.10723 -2.43527,-3.89216 -2.50439,-3.96651 -0.10607,-0.11413 -0.12567,0.76583 -0.12567,5.65465 v 5.78983 h -2.26185 -2.26186 z"
           id="path26-0-8" />
        <path
           style="fill:#008000;fill-opacity:1;stroke-width:0.348929"
           d="m 201.20359,203.04467 c -0.0245,-0.0643 -0.0339,-4.29218 -0.0208,-9.3952 l 0.0238,-9.27824 h 2.40035 2.40033 v 9.37055 9.37056 l -2.37956,0.0246 c -1.85377,0.0192 -2.3894,-8.1e-4 -2.42413,-0.0924 z"
           id="path25-1-9" />
        <path
           style="fill:#008000;fill-opacity:1;stroke-width:0.348929"
           d="m 173.92582,193.7485 v -9.42343 h 2.40035 2.40033 v 9.39726 9.39725 l -2.40033,0.0262 -2.40035,0.0261 z"
           id="path23-0-4" />
        <path
           style="fill:#008000;fill-opacity:1;stroke-width:0.348929"
           d="m 158.15525,203.00132 c -0.0835,-0.1588 -0.44821,-1.07252 -1.72451,-4.32038 -0.31925,-0.81243 -1.72727,-4.35362 -3.12894,-7.86933 -1.40166,-3.51572 -2.54848,-6.41406 -2.54848,-6.44077 0,-0.0267 1.20899,-0.0376 2.68662,-0.0241 l 2.68663,0.0244 1.79131,5.26229 c 1.89674,5.57197 2.90053,8.46862 2.95664,8.53196 0.0187,0.0212 0.0543,0.0183 0.079,-0.007 0.0563,-0.0563 1.38822,-3.92393 3.26985,-9.49498 l 1.44991,-4.2929 2.6492,-0.0245 c 1.45705,-0.0135 2.64918,-0.005 2.64918,0.0187 0,0.056 -0.79878,2.08697 -3.99649,10.16107 -0.58318,1.47252 -1.57005,3.96517 -2.19304,5.53924 -0.62299,1.57407 -1.16906,2.90932 -1.21348,2.96721 -0.0566,0.0739 -0.86418,0.10959 -2.70341,0.11979 -2.43872,0.0135 -2.62877,0.002 -2.7099,-0.15143 z"
           id="path20-6-5" />
        <path
           style="fill:#008000;fill-opacity:1;stroke-width:0.348929"
           d="m 188.56166,203.28892 c -1.5626,-0.2428 -3.04573,-0.88857 -3.98938,-1.73698 -0.93558,-0.84117 -1.64433,-2.32052 -1.75729,-3.66799 l -0.0532,-0.63398 h 2.31407 2.31407 l 0.0648,0.30004 c 0.1801,0.83433 0.85361,1.54735 1.69179,1.79103 0.71335,0.20736 2.04451,0.13772 2.56878,-0.13439 1.12494,-0.58391 1.23117,-1.93867 0.19932,-2.54217 -0.40857,-0.23897 -0.67456,-0.32911 -3.44828,-1.16856 -2.59575,-0.78559 -3.73144,-1.42377 -4.53322,-2.54736 -0.73921,-1.03591 -1.04973,-2.35465 -0.87087,-3.69862 0.26804,-2.01424 1.33073,-3.47705 3.17417,-4.36933 1.28966,-0.62424 1.994,-0.76993 3.75322,-0.77638 1.28455,-0.005 1.6535,0.027 2.35417,0.20215 1.00287,0.25072 2.32746,0.89027 2.94596,1.42241 1.04433,0.89851 1.80324,2.38457 1.83692,3.597 l 0.0178,0.64016 -2.25249,-0.008 c -1.23888,-0.005 -2.28316,-0.0267 -2.32063,-0.0498 -0.0374,-0.0231 -0.0943,-0.1812 -0.12613,-0.35122 -0.0906,-0.48299 -0.62526,-1.03594 -1.21497,-1.25657 -0.78054,-0.29204 -1.79756,-0.26568 -2.44733,0.0634 -0.76827,0.38914 -1.0921,1.11754 -0.81822,1.84041 0.23879,0.63019 0.82222,0.97414 2.3942,1.41141 3.43942,0.95673 4.65207,1.45841 5.56549,2.3025 1.07584,0.99418 1.55473,2.08953 1.55745,3.56236 0.005,2.39179 -1.22687,4.2806 -3.40913,5.22964 -1.4966,0.65082 -3.61476,0.87317 -5.51107,0.57851 z"
           id="path19-7-2" />
        <path
           style="fill:#008000;fill-opacity:1;stroke-width:0.348929"
           d="m 218.14744,203.84594 c -3.69517,-0.79287 -6.64975,-3.583 -7.70611,-7.27722 -0.12892,-0.45086 -0.26092,-1.10518 -0.29335,-1.45405 l -0.059,-0.63433 h 1.58561 c 1.18981,0 1.59362,0.0288 1.61774,0.11541 0.0176,0.0634 0.1021,0.43379 0.18774,0.82292 0.30632,1.39273 1.25236,2.9226 2.3868,3.85975 0.8233,0.68011 2.06005,1.27255 3.04449,1.45841 l 0.80548,0.15206 v 1.55025 1.55024 l -0.48467,-0.007 c -0.26657,-0.005 -0.75472,-0.0652 -1.08476,-0.1361 z"
           id="path18-3-8" />
        <path
           style="fill:#0b5296;fill-opacity:1;stroke-width:0.348929"
           d="m 221.00939,202.46432 v -1.61385 h 0.21603 c 0.44971,0 1.7045,-0.3821 2.4151,-0.73544 1.24455,-0.61884 2.48281,-1.84142 3.09664,-3.05741 0.29258,-0.57961 0.73467,-1.99782 0.73467,-2.3568 v -0.22048 h 1.61561 1.61561 v 0.26678 c 0,0.83387 -0.48618,2.56299 -1.01522,3.6107 -1.63901,3.24584 -4.5429,5.24398 -8.23993,5.66984 l -0.43851,0.0505 z"
           id="path17-9-0" />
      </g>
    </g>
  </g>
</svg>
